<mxfile host="app.diagrams.net" modified="2023-10-15T23:12:25.547Z" agent="Mozilla/5.0 (Windows NT 10.0; Win64; x64; rv:109.0) Gecko/20100101 Firefox/118.0" etag="GjKqhnGcfZDpREj8N2Ky" version="22.0.4" type="device">
  <diagram name="Page-1" id="e56a1550-8fbb-45ad-956c-1786394a9013">
    <mxGraphModel dx="1050" dy="561" grid="1" gridSize="10" guides="1" tooltips="1" connect="1" arrows="1" fold="1" page="1" pageScale="1" pageWidth="1100" pageHeight="850" background="none" math="0" shadow="0">
      <root>
        <mxCell id="0" />
        <mxCell id="1" parent="0" />
        <mxCell id="2YbUK4ISL08a5dzmmpoV-1" value="courses" style="swimlane;html=1;fontStyle=0;childLayout=stackLayout;horizontal=1;startSize=26;fillColor=#e0e0e0;horizontalStack=0;resizeParent=1;resizeLast=0;collapsible=1;marginBottom=0;swimlaneFillColor=#ffffff;align=center;rounded=0;shadow=0;comic=0;labelBackgroundColor=none;strokeWidth=1;fontFamily=Verdana;fontSize=14" parent="1" vertex="1">
          <mxGeometry x="1180" y="27" width="200" height="144" as="geometry" />
        </mxCell>
        <mxCell id="2YbUK4ISL08a5dzmmpoV-2" value="id  (int)" style="shape=partialRectangle;top=0;left=0;right=0;bottom=1;html=1;align=left;verticalAlign=middle;fillColor=none;spacingLeft=34;spacingRight=4;whiteSpace=wrap;overflow=hidden;rotatable=0;points=[[0,0.5],[1,0.5]];portConstraint=eastwest;dropTarget=0;fontStyle=5;" parent="2YbUK4ISL08a5dzmmpoV-1" vertex="1">
          <mxGeometry y="26" width="200" height="30" as="geometry" />
        </mxCell>
        <mxCell id="2YbUK4ISL08a5dzmmpoV-3" value="PK" style="shape=partialRectangle;top=0;left=0;bottom=0;html=1;fillColor=none;align=left;verticalAlign=middle;spacingLeft=4;spacingRight=4;whiteSpace=wrap;overflow=hidden;rotatable=0;points=[];portConstraint=eastwest;part=1;" parent="2YbUK4ISL08a5dzmmpoV-2" vertex="1" connectable="0">
          <mxGeometry width="30" height="30" as="geometry" />
        </mxCell>
        <mxCell id="2YbUK4ISL08a5dzmmpoV-4" value="name (varchar)" style="shape=partialRectangle;top=0;left=0;right=0;bottom=0;html=1;align=left;verticalAlign=top;fillColor=none;spacingLeft=34;spacingRight=4;whiteSpace=wrap;overflow=hidden;rotatable=0;points=[[0,0.5],[1,0.5]];portConstraint=eastwest;dropTarget=0;" parent="2YbUK4ISL08a5dzmmpoV-1" vertex="1">
          <mxGeometry y="56" width="200" height="26" as="geometry" />
        </mxCell>
        <mxCell id="2YbUK4ISL08a5dzmmpoV-5" value="" style="shape=partialRectangle;top=0;left=0;bottom=0;html=1;fillColor=none;align=left;verticalAlign=top;spacingLeft=4;spacingRight=4;whiteSpace=wrap;overflow=hidden;rotatable=0;points=[];portConstraint=eastwest;part=1;" parent="2YbUK4ISL08a5dzmmpoV-4" vertex="1" connectable="0">
          <mxGeometry width="30" height="26" as="geometry" />
        </mxCell>
        <mxCell id="2YbUK4ISL08a5dzmmpoV-6" value="" style="shape=partialRectangle;top=0;left=0;right=0;bottom=0;html=1;align=left;verticalAlign=top;fillColor=none;spacingLeft=34;spacingRight=4;whiteSpace=wrap;overflow=hidden;rotatable=0;points=[[0,0.5],[1,0.5]];portConstraint=eastwest;dropTarget=0;" parent="2YbUK4ISL08a5dzmmpoV-1" vertex="1">
          <mxGeometry y="82" width="200" height="10" as="geometry" />
        </mxCell>
        <mxCell id="2YbUK4ISL08a5dzmmpoV-7" value="" style="shape=partialRectangle;top=0;left=0;bottom=0;html=1;fillColor=none;align=left;verticalAlign=top;spacingLeft=4;spacingRight=4;whiteSpace=wrap;overflow=hidden;rotatable=0;points=[];portConstraint=eastwest;part=1;" parent="2YbUK4ISL08a5dzmmpoV-6" vertex="1" connectable="0">
          <mxGeometry width="30" height="10" as="geometry" />
        </mxCell>
        <mxCell id="2YbUK4ISL08a5dzmmpoV-8" value="number (int)" style="shape=partialRectangle;top=0;left=0;right=0;bottom=0;html=1;align=left;verticalAlign=top;fillColor=none;spacingLeft=34;spacingRight=4;whiteSpace=wrap;overflow=hidden;rotatable=0;points=[[0,0.5],[1,0.5]];portConstraint=eastwest;dropTarget=0;" parent="2YbUK4ISL08a5dzmmpoV-1" vertex="1">
          <mxGeometry y="92" width="200" height="26" as="geometry" />
        </mxCell>
        <mxCell id="2YbUK4ISL08a5dzmmpoV-9" value="" style="shape=partialRectangle;top=0;left=0;bottom=0;html=1;fillColor=none;align=left;verticalAlign=top;spacingLeft=4;spacingRight=4;whiteSpace=wrap;overflow=hidden;rotatable=0;points=[];portConstraint=eastwest;part=1;" parent="2YbUK4ISL08a5dzmmpoV-8" vertex="1" connectable="0">
          <mxGeometry width="30" height="26" as="geometry" />
        </mxCell>
        <mxCell id="oqj-cZ9m_qDqEeV06WUJ-6" value="specialisation_area_id (int)" style="shape=partialRectangle;top=0;left=0;right=0;bottom=0;html=1;align=left;verticalAlign=top;fillColor=none;spacingLeft=34;spacingRight=4;whiteSpace=wrap;overflow=hidden;rotatable=0;points=[[0,0.5],[1,0.5]];portConstraint=eastwest;dropTarget=0;" parent="2YbUK4ISL08a5dzmmpoV-1" vertex="1">
          <mxGeometry y="118" width="200" height="26" as="geometry" />
        </mxCell>
        <mxCell id="oqj-cZ9m_qDqEeV06WUJ-7" value="FK" style="shape=partialRectangle;top=0;left=0;bottom=0;html=1;fillColor=none;align=left;verticalAlign=top;spacingLeft=4;spacingRight=4;whiteSpace=wrap;overflow=hidden;rotatable=0;points=[];portConstraint=eastwest;part=1;" parent="oqj-cZ9m_qDqEeV06WUJ-6" vertex="1" connectable="0">
          <mxGeometry width="30" height="26" as="geometry" />
        </mxCell>
        <mxCell id="2YbUK4ISL08a5dzmmpoV-10" value="user_ufcds" style="swimlane;html=1;fontStyle=0;childLayout=stackLayout;horizontal=1;startSize=26;fillColor=#e0e0e0;horizontalStack=0;resizeParent=1;resizeLast=0;collapsible=1;marginBottom=0;swimlaneFillColor=#ffffff;align=center;rounded=0;shadow=0;comic=0;labelBackgroundColor=none;strokeWidth=1;fontFamily=Verdana;fontSize=14" parent="1" vertex="1">
          <mxGeometry x="890" y="657" width="180" height="88" as="geometry" />
        </mxCell>
        <mxCell id="2YbUK4ISL08a5dzmmpoV-15" value="ufcd_id (int)" style="shape=partialRectangle;top=0;left=0;right=0;bottom=0;html=1;align=left;verticalAlign=top;fillColor=none;spacingLeft=34;spacingRight=4;whiteSpace=wrap;overflow=hidden;rotatable=0;points=[[0,0.5],[1,0.5]];portConstraint=eastwest;dropTarget=0;" parent="2YbUK4ISL08a5dzmmpoV-10" vertex="1">
          <mxGeometry y="26" width="180" height="26" as="geometry" />
        </mxCell>
        <mxCell id="2YbUK4ISL08a5dzmmpoV-16" value="FK" style="shape=partialRectangle;top=0;left=0;bottom=0;html=1;fillColor=none;align=left;verticalAlign=top;spacingLeft=4;spacingRight=4;whiteSpace=wrap;overflow=hidden;rotatable=0;points=[];portConstraint=eastwest;part=1;" parent="2YbUK4ISL08a5dzmmpoV-15" vertex="1" connectable="0">
          <mxGeometry width="30" height="26" as="geometry" />
        </mxCell>
        <mxCell id="2YbUK4ISL08a5dzmmpoV-19" value="teacher_id (int)" style="shape=partialRectangle;top=0;left=0;right=0;bottom=0;html=1;align=left;verticalAlign=top;fillColor=none;spacingLeft=34;spacingRight=4;whiteSpace=wrap;overflow=hidden;rotatable=0;points=[[0,0.5],[1,0.5]];portConstraint=eastwest;dropTarget=0;" parent="2YbUK4ISL08a5dzmmpoV-10" vertex="1">
          <mxGeometry y="52" width="180" height="26" as="geometry" />
        </mxCell>
        <mxCell id="2YbUK4ISL08a5dzmmpoV-20" value="FK" style="shape=partialRectangle;top=0;left=0;bottom=0;html=1;fillColor=none;align=left;verticalAlign=top;spacingLeft=4;spacingRight=4;whiteSpace=wrap;overflow=hidden;rotatable=0;points=[];portConstraint=eastwest;part=1;" parent="2YbUK4ISL08a5dzmmpoV-19" vertex="1" connectable="0">
          <mxGeometry width="30" height="26" as="geometry" />
        </mxCell>
        <mxCell id="2YbUK4ISL08a5dzmmpoV-13" value="" style="shape=partialRectangle;top=0;left=0;right=0;bottom=0;html=1;align=left;verticalAlign=top;fillColor=none;spacingLeft=34;spacingRight=4;whiteSpace=wrap;overflow=hidden;rotatable=0;points=[[0,0.5],[1,0.5]];portConstraint=eastwest;dropTarget=0;" parent="2YbUK4ISL08a5dzmmpoV-10" vertex="1">
          <mxGeometry y="78" width="180" height="10" as="geometry" />
        </mxCell>
        <mxCell id="2YbUK4ISL08a5dzmmpoV-14" value="" style="shape=partialRectangle;top=0;left=0;bottom=0;html=1;fillColor=none;align=left;verticalAlign=top;spacingLeft=4;spacingRight=4;whiteSpace=wrap;overflow=hidden;rotatable=0;points=[];portConstraint=eastwest;part=1;" parent="2YbUK4ISL08a5dzmmpoV-13" vertex="1" connectable="0">
          <mxGeometry width="30" height="10" as="geometry" />
        </mxCell>
        <mxCell id="2YbUK4ISL08a5dzmmpoV-21" value="users" style="swimlane;html=1;fontStyle=0;childLayout=stackLayout;horizontal=1;startSize=26;fillColor=#e0e0e0;horizontalStack=0;resizeParent=1;resizeLast=0;collapsible=1;marginBottom=0;swimlaneFillColor=#ffffff;align=center;rounded=0;shadow=0;comic=0;labelBackgroundColor=none;strokeWidth=1;fontFamily=Verdana;fontSize=14" parent="1" vertex="1">
          <mxGeometry x="570" y="47" width="250" height="404" as="geometry" />
        </mxCell>
        <mxCell id="2YbUK4ISL08a5dzmmpoV-22" value="id  (int)" style="shape=partialRectangle;top=0;left=0;right=0;bottom=1;html=1;align=left;verticalAlign=middle;fillColor=none;spacingLeft=34;spacingRight=4;whiteSpace=wrap;overflow=hidden;rotatable=0;points=[[0,0.5],[1,0.5]];portConstraint=eastwest;dropTarget=0;fontStyle=5;" parent="2YbUK4ISL08a5dzmmpoV-21" vertex="1">
          <mxGeometry y="26" width="250" height="30" as="geometry" />
        </mxCell>
        <mxCell id="2YbUK4ISL08a5dzmmpoV-23" value="PK" style="shape=partialRectangle;top=0;left=0;bottom=0;html=1;fillColor=none;align=left;verticalAlign=middle;spacingLeft=4;spacingRight=4;whiteSpace=wrap;overflow=hidden;rotatable=0;points=[];portConstraint=eastwest;part=1;" parent="2YbUK4ISL08a5dzmmpoV-22" vertex="1" connectable="0">
          <mxGeometry width="30" height="30" as="geometry" />
        </mxCell>
        <mxCell id="2YbUK4ISL08a5dzmmpoV-24" value="name (varchar)" style="shape=partialRectangle;top=0;left=0;right=0;bottom=0;html=1;align=left;verticalAlign=top;fillColor=none;spacingLeft=34;spacingRight=4;whiteSpace=wrap;overflow=hidden;rotatable=0;points=[[0,0.5],[1,0.5]];portConstraint=eastwest;dropTarget=0;" parent="2YbUK4ISL08a5dzmmpoV-21" vertex="1">
          <mxGeometry y="56" width="250" height="26" as="geometry" />
        </mxCell>
        <mxCell id="2YbUK4ISL08a5dzmmpoV-25" value="" style="shape=partialRectangle;top=0;left=0;bottom=0;html=1;fillColor=none;align=left;verticalAlign=top;spacingLeft=4;spacingRight=4;whiteSpace=wrap;overflow=hidden;rotatable=0;points=[];portConstraint=eastwest;part=1;" parent="2YbUK4ISL08a5dzmmpoV-24" vertex="1" connectable="0">
          <mxGeometry width="30" height="26" as="geometry" />
        </mxCell>
        <mxCell id="oqj-cZ9m_qDqEeV06WUJ-29" value="email(varchar)" style="shape=partialRectangle;top=0;left=0;right=0;bottom=0;html=1;align=left;verticalAlign=top;fillColor=none;spacingLeft=34;spacingRight=4;whiteSpace=wrap;overflow=hidden;rotatable=0;points=[[0,0.5],[1,0.5]];portConstraint=eastwest;dropTarget=0;" parent="2YbUK4ISL08a5dzmmpoV-21" vertex="1">
          <mxGeometry y="82" width="250" height="26" as="geometry" />
        </mxCell>
        <mxCell id="oqj-cZ9m_qDqEeV06WUJ-30" value="" style="shape=partialRectangle;top=0;left=0;bottom=0;html=1;fillColor=none;align=left;verticalAlign=top;spacingLeft=4;spacingRight=4;whiteSpace=wrap;overflow=hidden;rotatable=0;points=[];portConstraint=eastwest;part=1;" parent="oqj-cZ9m_qDqEeV06WUJ-29" vertex="1" connectable="0">
          <mxGeometry width="30" height="26" as="geometry" />
        </mxCell>
        <mxCell id="oqj-cZ9m_qDqEeV06WUJ-22" value="color_1 (varchar)" style="shape=partialRectangle;top=0;left=0;right=0;bottom=0;html=1;align=left;verticalAlign=top;fillColor=none;spacingLeft=34;spacingRight=4;whiteSpace=wrap;overflow=hidden;rotatable=0;points=[[0,0.5],[1,0.5]];portConstraint=eastwest;dropTarget=0;" parent="2YbUK4ISL08a5dzmmpoV-21" vertex="1">
          <mxGeometry y="108" width="250" height="26" as="geometry" />
        </mxCell>
        <mxCell id="oqj-cZ9m_qDqEeV06WUJ-23" value="" style="shape=partialRectangle;top=0;left=0;bottom=0;html=1;fillColor=none;align=left;verticalAlign=top;spacingLeft=4;spacingRight=4;whiteSpace=wrap;overflow=hidden;rotatable=0;points=[];portConstraint=eastwest;part=1;" parent="oqj-cZ9m_qDqEeV06WUJ-22" vertex="1" connectable="0">
          <mxGeometry width="30" height="26" as="geometry" />
        </mxCell>
        <mxCell id="oqj-cZ9m_qDqEeV06WUJ-24" value="color_2 (varchar)" style="shape=partialRectangle;top=0;left=0;right=0;bottom=0;html=1;align=left;verticalAlign=top;fillColor=none;spacingLeft=34;spacingRight=4;whiteSpace=wrap;overflow=hidden;rotatable=0;points=[[0,0.5],[1,0.5]];portConstraint=eastwest;dropTarget=0;" parent="2YbUK4ISL08a5dzmmpoV-21" vertex="1">
          <mxGeometry y="134" width="250" height="26" as="geometry" />
        </mxCell>
        <mxCell id="oqj-cZ9m_qDqEeV06WUJ-25" value="" style="shape=partialRectangle;top=0;left=0;bottom=0;html=1;fillColor=none;align=left;verticalAlign=top;spacingLeft=4;spacingRight=4;whiteSpace=wrap;overflow=hidden;rotatable=0;points=[];portConstraint=eastwest;part=1;" parent="oqj-cZ9m_qDqEeV06WUJ-24" vertex="1" connectable="0">
          <mxGeometry width="30" height="26" as="geometry" />
        </mxCell>
        <mxCell id="oqj-cZ9m_qDqEeV06WUJ-31" value="password (varchar)" style="shape=partialRectangle;top=0;left=0;right=0;bottom=0;html=1;align=left;verticalAlign=top;fillColor=none;spacingLeft=34;spacingRight=4;whiteSpace=wrap;overflow=hidden;rotatable=0;points=[[0,0.5],[1,0.5]];portConstraint=eastwest;dropTarget=0;" parent="2YbUK4ISL08a5dzmmpoV-21" vertex="1">
          <mxGeometry y="160" width="250" height="26" as="geometry" />
        </mxCell>
        <mxCell id="oqj-cZ9m_qDqEeV06WUJ-32" value="" style="shape=partialRectangle;top=0;left=0;bottom=0;html=1;fillColor=none;align=left;verticalAlign=top;spacingLeft=4;spacingRight=4;whiteSpace=wrap;overflow=hidden;rotatable=0;points=[];portConstraint=eastwest;part=1;" parent="oqj-cZ9m_qDqEeV06WUJ-31" vertex="1" connectable="0">
          <mxGeometry width="30" height="26" as="geometry" />
        </mxCell>
        <mxCell id="Ckj1gUC8P8zu2XmUC1Yf-3" value="user_type_id (int)" style="shape=partialRectangle;top=0;left=0;right=0;bottom=0;html=1;align=left;verticalAlign=top;fillColor=none;spacingLeft=34;spacingRight=4;whiteSpace=wrap;overflow=hidden;rotatable=0;points=[[0,0.5],[1,0.5]];portConstraint=eastwest;dropTarget=0;" parent="2YbUK4ISL08a5dzmmpoV-21" vertex="1">
          <mxGeometry y="186" width="250" height="26" as="geometry" />
        </mxCell>
        <mxCell id="Ckj1gUC8P8zu2XmUC1Yf-4" value="" style="shape=partialRectangle;top=0;left=0;bottom=0;html=1;fillColor=none;align=left;verticalAlign=top;spacingLeft=4;spacingRight=4;whiteSpace=wrap;overflow=hidden;rotatable=0;points=[];portConstraint=eastwest;part=1;" parent="Ckj1gUC8P8zu2XmUC1Yf-3" vertex="1" connectable="0">
          <mxGeometry width="30" height="26" as="geometry" />
        </mxCell>
        <mxCell id="Ckj1gUC8P8zu2XmUC1Yf-5" value="token_password (varchar)" style="shape=partialRectangle;top=0;left=0;right=0;bottom=0;html=1;align=left;verticalAlign=top;fillColor=none;spacingLeft=34;spacingRight=4;whiteSpace=wrap;overflow=hidden;rotatable=0;points=[[0,0.5],[1,0.5]];portConstraint=eastwest;dropTarget=0;" parent="2YbUK4ISL08a5dzmmpoV-21" vertex="1">
          <mxGeometry y="212" width="250" height="26" as="geometry" />
        </mxCell>
        <mxCell id="Ckj1gUC8P8zu2XmUC1Yf-6" value="" style="shape=partialRectangle;top=0;left=0;bottom=0;html=1;fillColor=none;align=left;verticalAlign=top;spacingLeft=4;spacingRight=4;whiteSpace=wrap;overflow=hidden;rotatable=0;points=[];portConstraint=eastwest;part=1;" parent="Ckj1gUC8P8zu2XmUC1Yf-5" vertex="1" connectable="0">
          <mxGeometry width="30" height="26" as="geometry" />
        </mxCell>
        <mxCell id="Ckj1gUC8P8zu2XmUC1Yf-7" value="token_used (bool)" style="shape=partialRectangle;top=0;left=0;right=0;bottom=0;html=1;align=left;verticalAlign=top;fillColor=none;spacingLeft=34;spacingRight=4;whiteSpace=wrap;overflow=hidden;rotatable=0;points=[[0,0.5],[1,0.5]];portConstraint=eastwest;dropTarget=0;" parent="2YbUK4ISL08a5dzmmpoV-21" vertex="1">
          <mxGeometry y="238" width="250" height="26" as="geometry" />
        </mxCell>
        <mxCell id="Ckj1gUC8P8zu2XmUC1Yf-8" value="" style="shape=partialRectangle;top=0;left=0;bottom=0;html=1;fillColor=none;align=left;verticalAlign=top;spacingLeft=4;spacingRight=4;whiteSpace=wrap;overflow=hidden;rotatable=0;points=[];portConstraint=eastwest;part=1;" parent="Ckj1gUC8P8zu2XmUC1Yf-7" vertex="1" connectable="0">
          <mxGeometry width="30" height="26" as="geometry" />
        </mxCell>
        <mxCell id="Ckj1gUC8P8zu2XmUC1Yf-13" value="token_created_at (timestamp)" style="shape=partialRectangle;top=0;left=0;right=0;bottom=0;html=1;align=left;verticalAlign=top;fillColor=none;spacingLeft=34;spacingRight=4;whiteSpace=wrap;overflow=hidden;rotatable=0;points=[[0,0.5],[1,0.5]];portConstraint=eastwest;dropTarget=0;" parent="2YbUK4ISL08a5dzmmpoV-21" vertex="1">
          <mxGeometry y="264" width="250" height="26" as="geometry" />
        </mxCell>
        <mxCell id="Ckj1gUC8P8zu2XmUC1Yf-14" value="" style="shape=partialRectangle;top=0;left=0;bottom=0;html=1;fillColor=none;align=left;verticalAlign=top;spacingLeft=4;spacingRight=4;whiteSpace=wrap;overflow=hidden;rotatable=0;points=[];portConstraint=eastwest;part=1;" parent="Ckj1gUC8P8zu2XmUC1Yf-13" vertex="1" connectable="0">
          <mxGeometry width="30" height="26" as="geometry" />
        </mxCell>
        <mxCell id="IYcif_MQp60Ecr10zZQo-5" value="last_login (datetime)" style="shape=partialRectangle;top=0;left=0;right=0;bottom=0;html=1;align=left;verticalAlign=top;fillColor=none;spacingLeft=34;spacingRight=4;whiteSpace=wrap;overflow=hidden;rotatable=0;points=[[0,0.5],[1,0.5]];portConstraint=eastwest;dropTarget=0;" vertex="1" parent="2YbUK4ISL08a5dzmmpoV-21">
          <mxGeometry y="290" width="250" height="26" as="geometry" />
        </mxCell>
        <mxCell id="IYcif_MQp60Ecr10zZQo-6" value="" style="shape=partialRectangle;top=0;left=0;bottom=0;html=1;fillColor=none;align=left;verticalAlign=top;spacingLeft=4;spacingRight=4;whiteSpace=wrap;overflow=hidden;rotatable=0;points=[];portConstraint=eastwest;part=1;" vertex="1" connectable="0" parent="IYcif_MQp60Ecr10zZQo-5">
          <mxGeometry width="30" height="26" as="geometry" />
        </mxCell>
        <mxCell id="Ckj1gUC8P8zu2XmUC1Yf-15" value="color_1 (varchar)" style="shape=partialRectangle;top=0;left=0;right=0;bottom=0;html=1;align=left;verticalAlign=top;fillColor=none;spacingLeft=34;spacingRight=4;whiteSpace=wrap;overflow=hidden;rotatable=0;points=[[0,0.5],[1,0.5]];portConstraint=eastwest;dropTarget=0;" parent="2YbUK4ISL08a5dzmmpoV-21" vertex="1">
          <mxGeometry y="316" width="250" height="26" as="geometry" />
        </mxCell>
        <mxCell id="Ckj1gUC8P8zu2XmUC1Yf-16" value="" style="shape=partialRectangle;top=0;left=0;bottom=0;html=1;fillColor=none;align=left;verticalAlign=top;spacingLeft=4;spacingRight=4;whiteSpace=wrap;overflow=hidden;rotatable=0;points=[];portConstraint=eastwest;part=1;" parent="Ckj1gUC8P8zu2XmUC1Yf-15" vertex="1" connectable="0">
          <mxGeometry width="30" height="26" as="geometry" />
        </mxCell>
        <mxCell id="Ckj1gUC8P8zu2XmUC1Yf-11" value="color_1 (varchar)" style="shape=partialRectangle;top=0;left=0;right=0;bottom=0;html=1;align=left;verticalAlign=top;fillColor=none;spacingLeft=34;spacingRight=4;whiteSpace=wrap;overflow=hidden;rotatable=0;points=[[0,0.5],[1,0.5]];portConstraint=eastwest;dropTarget=0;" parent="2YbUK4ISL08a5dzmmpoV-21" vertex="1">
          <mxGeometry y="342" width="250" height="26" as="geometry" />
        </mxCell>
        <mxCell id="Ckj1gUC8P8zu2XmUC1Yf-12" value="" style="shape=partialRectangle;top=0;left=0;bottom=0;html=1;fillColor=none;align=left;verticalAlign=top;spacingLeft=4;spacingRight=4;whiteSpace=wrap;overflow=hidden;rotatable=0;points=[];portConstraint=eastwest;part=1;" parent="Ckj1gUC8P8zu2XmUC1Yf-11" vertex="1" connectable="0">
          <mxGeometry width="30" height="26" as="geometry" />
        </mxCell>
        <mxCell id="XMIAzyzYhjPNlsQmTrW_-7" value="password_reset_requested (bool)" style="shape=partialRectangle;top=0;left=0;right=0;bottom=0;html=1;align=left;verticalAlign=top;fillColor=none;spacingLeft=34;spacingRight=4;whiteSpace=wrap;overflow=hidden;rotatable=0;points=[[0,0.5],[1,0.5]];portConstraint=eastwest;dropTarget=0;" parent="2YbUK4ISL08a5dzmmpoV-21" vertex="1">
          <mxGeometry y="368" width="250" height="26" as="geometry" />
        </mxCell>
        <mxCell id="XMIAzyzYhjPNlsQmTrW_-8" value="" style="shape=partialRectangle;top=0;left=0;bottom=0;html=1;fillColor=none;align=left;verticalAlign=top;spacingLeft=4;spacingRight=4;whiteSpace=wrap;overflow=hidden;rotatable=0;points=[];portConstraint=eastwest;part=1;" parent="XMIAzyzYhjPNlsQmTrW_-7" vertex="1" connectable="0">
          <mxGeometry width="30" height="26" as="geometry" />
        </mxCell>
        <mxCell id="2YbUK4ISL08a5dzmmpoV-30" value="" style="shape=partialRectangle;top=0;left=0;right=0;bottom=0;html=1;align=left;verticalAlign=top;fillColor=none;spacingLeft=34;spacingRight=4;whiteSpace=wrap;overflow=hidden;rotatable=0;points=[[0,0.5],[1,0.5]];portConstraint=eastwest;dropTarget=0;" parent="2YbUK4ISL08a5dzmmpoV-21" vertex="1">
          <mxGeometry y="394" width="250" height="10" as="geometry" />
        </mxCell>
        <mxCell id="2YbUK4ISL08a5dzmmpoV-31" value="" style="shape=partialRectangle;top=0;left=0;bottom=0;html=1;fillColor=none;align=left;verticalAlign=top;spacingLeft=4;spacingRight=4;whiteSpace=wrap;overflow=hidden;rotatable=0;points=[];portConstraint=eastwest;part=1;" parent="2YbUK4ISL08a5dzmmpoV-30" vertex="1" connectable="0">
          <mxGeometry width="30" height="10" as="geometry" />
        </mxCell>
        <mxCell id="2YbUK4ISL08a5dzmmpoV-32" value="course_classes" style="swimlane;html=1;fontStyle=0;childLayout=stackLayout;horizontal=1;startSize=26;fillColor=#e0e0e0;horizontalStack=0;resizeParent=1;resizeLast=0;collapsible=1;marginBottom=0;swimlaneFillColor=#ffffff;align=center;rounded=0;shadow=0;comic=0;labelBackgroundColor=none;strokeWidth=1;fontFamily=Verdana;fontSize=14" parent="1" vertex="1">
          <mxGeometry x="1158" y="251" width="180" height="148" as="geometry" />
        </mxCell>
        <mxCell id="2YbUK4ISL08a5dzmmpoV-33" value="id (int)" style="shape=partialRectangle;top=0;left=0;right=0;bottom=1;html=1;align=left;verticalAlign=middle;fillColor=none;spacingLeft=34;spacingRight=4;whiteSpace=wrap;overflow=hidden;rotatable=0;points=[[0,0.5],[1,0.5]];portConstraint=eastwest;dropTarget=0;fontStyle=5;" parent="2YbUK4ISL08a5dzmmpoV-32" vertex="1">
          <mxGeometry y="26" width="180" height="30" as="geometry" />
        </mxCell>
        <mxCell id="2YbUK4ISL08a5dzmmpoV-34" value="PK" style="shape=partialRectangle;top=0;left=0;bottom=0;html=1;fillColor=none;align=left;verticalAlign=middle;spacingLeft=4;spacingRight=4;whiteSpace=wrap;overflow=hidden;rotatable=0;points=[];portConstraint=eastwest;part=1;" parent="2YbUK4ISL08a5dzmmpoV-33" vertex="1" connectable="0">
          <mxGeometry width="30" height="30" as="geometry" />
        </mxCell>
        <mxCell id="2YbUK4ISL08a5dzmmpoV-35" value="name (varchar)" style="shape=partialRectangle;top=0;left=0;right=0;bottom=0;html=1;align=left;verticalAlign=top;fillColor=none;spacingLeft=34;spacingRight=4;whiteSpace=wrap;overflow=hidden;rotatable=0;points=[[0,0.5],[1,0.5]];portConstraint=eastwest;dropTarget=0;" parent="2YbUK4ISL08a5dzmmpoV-32" vertex="1">
          <mxGeometry y="56" width="180" height="26" as="geometry" />
        </mxCell>
        <mxCell id="2YbUK4ISL08a5dzmmpoV-36" value="" style="shape=partialRectangle;top=0;left=0;bottom=0;html=1;fillColor=none;align=left;verticalAlign=top;spacingLeft=4;spacingRight=4;whiteSpace=wrap;overflow=hidden;rotatable=0;points=[];portConstraint=eastwest;part=1;" parent="2YbUK4ISL08a5dzmmpoV-35" vertex="1" connectable="0">
          <mxGeometry width="30" height="26" as="geometry" />
        </mxCell>
        <mxCell id="2YbUK4ISL08a5dzmmpoV-39" value="number (int)" style="shape=partialRectangle;top=0;left=0;right=0;bottom=0;html=1;align=left;verticalAlign=top;fillColor=none;spacingLeft=34;spacingRight=4;whiteSpace=wrap;overflow=hidden;rotatable=0;points=[[0,0.5],[1,0.5]];portConstraint=eastwest;dropTarget=0;" parent="2YbUK4ISL08a5dzmmpoV-32" vertex="1">
          <mxGeometry y="82" width="180" height="28" as="geometry" />
        </mxCell>
        <mxCell id="2YbUK4ISL08a5dzmmpoV-40" value="" style="shape=partialRectangle;top=0;left=0;bottom=0;html=1;fillColor=none;align=left;verticalAlign=top;spacingLeft=4;spacingRight=4;whiteSpace=wrap;overflow=hidden;rotatable=0;points=[];portConstraint=eastwest;part=1;" parent="2YbUK4ISL08a5dzmmpoV-39" vertex="1" connectable="0">
          <mxGeometry width="30" height="28" as="geometry" />
        </mxCell>
        <mxCell id="2YbUK4ISL08a5dzmmpoV-41" value="course_id (int)" style="shape=partialRectangle;top=0;left=0;right=0;bottom=0;html=1;align=left;verticalAlign=top;fillColor=none;spacingLeft=34;spacingRight=4;whiteSpace=wrap;overflow=hidden;rotatable=0;points=[[0,0.5],[1,0.5]];portConstraint=eastwest;dropTarget=0;" parent="2YbUK4ISL08a5dzmmpoV-32" vertex="1">
          <mxGeometry y="110" width="180" height="26" as="geometry" />
        </mxCell>
        <mxCell id="2YbUK4ISL08a5dzmmpoV-42" value="FK" style="shape=partialRectangle;top=0;left=0;bottom=0;html=1;fillColor=none;align=left;verticalAlign=top;spacingLeft=4;spacingRight=4;whiteSpace=wrap;overflow=hidden;rotatable=0;points=[];portConstraint=eastwest;part=1;" parent="2YbUK4ISL08a5dzmmpoV-41" vertex="1" connectable="0">
          <mxGeometry width="30" height="26" as="geometry" />
        </mxCell>
        <mxCell id="2YbUK4ISL08a5dzmmpoV-37" value="" style="shape=partialRectangle;top=0;left=0;right=0;bottom=0;html=1;align=left;verticalAlign=top;fillColor=none;spacingLeft=34;spacingRight=4;whiteSpace=wrap;overflow=hidden;rotatable=0;points=[[0,0.5],[1,0.5]];portConstraint=eastwest;dropTarget=0;" parent="2YbUK4ISL08a5dzmmpoV-32" vertex="1">
          <mxGeometry y="136" width="180" height="10" as="geometry" />
        </mxCell>
        <mxCell id="2YbUK4ISL08a5dzmmpoV-38" value="" style="shape=partialRectangle;top=0;left=0;bottom=0;html=1;fillColor=none;align=left;verticalAlign=top;spacingLeft=4;spacingRight=4;whiteSpace=wrap;overflow=hidden;rotatable=0;points=[];portConstraint=eastwest;part=1;" parent="2YbUK4ISL08a5dzmmpoV-37" vertex="1" connectable="0">
          <mxGeometry width="30" height="10" as="geometry" />
        </mxCell>
        <mxCell id="Ckj1gUC8P8zu2XmUC1Yf-48" style="edgeStyle=orthogonalEdgeStyle;rounded=0;orthogonalLoop=1;jettySize=auto;html=1;exitX=0;exitY=0;exitDx=0;exitDy=0;startArrow=ERone;startFill=0;endArrow=ERzeroToMany;endFill=0;entryX=1;entryY=0.5;entryDx=0;entryDy=0;" parent="1" source="2YbUK4ISL08a5dzmmpoV-43" target="Ckj1gUC8P8zu2XmUC1Yf-46" edge="1">
          <mxGeometry relative="1" as="geometry">
            <mxPoint x="1230" y="453" as="targetPoint" />
            <Array as="points">
              <mxPoint x="1130" y="664" />
              <mxPoint x="1130" y="453" />
            </Array>
          </mxGeometry>
        </mxCell>
        <mxCell id="2YbUK4ISL08a5dzmmpoV-43" value="ufcds" style="swimlane;html=1;fontStyle=0;childLayout=stackLayout;horizontal=1;startSize=26;fillColor=#e0e0e0;horizontalStack=0;resizeParent=1;resizeLast=0;collapsible=1;marginBottom=0;swimlaneFillColor=#ffffff;align=center;rounded=0;shadow=0;comic=0;labelBackgroundColor=none;strokeWidth=1;fontFamily=Verdana;fontSize=14" parent="1" vertex="1">
          <mxGeometry x="1158.0000000000002" y="654" width="180" height="170" as="geometry" />
        </mxCell>
        <mxCell id="2YbUK4ISL08a5dzmmpoV-44" value="id (int)" style="shape=partialRectangle;top=0;left=0;right=0;bottom=1;html=1;align=left;verticalAlign=middle;fillColor=none;spacingLeft=34;spacingRight=4;whiteSpace=wrap;overflow=hidden;rotatable=0;points=[[0,0.5],[1,0.5]];portConstraint=eastwest;dropTarget=0;fontStyle=5;" parent="2YbUK4ISL08a5dzmmpoV-43" vertex="1">
          <mxGeometry y="26" width="180" height="30" as="geometry" />
        </mxCell>
        <mxCell id="2YbUK4ISL08a5dzmmpoV-45" value="PK" style="shape=partialRectangle;top=0;left=0;bottom=0;html=1;fillColor=none;align=left;verticalAlign=middle;spacingLeft=4;spacingRight=4;whiteSpace=wrap;overflow=hidden;rotatable=0;points=[];portConstraint=eastwest;part=1;" parent="2YbUK4ISL08a5dzmmpoV-44" vertex="1" connectable="0">
          <mxGeometry width="30" height="30" as="geometry" />
        </mxCell>
        <mxCell id="2YbUK4ISL08a5dzmmpoV-46" value="name (varchar)" style="shape=partialRectangle;top=0;left=0;right=0;bottom=0;html=1;align=left;verticalAlign=top;fillColor=none;spacingLeft=34;spacingRight=4;whiteSpace=wrap;overflow=hidden;rotatable=0;points=[[0,0.5],[1,0.5]];portConstraint=eastwest;dropTarget=0;" parent="2YbUK4ISL08a5dzmmpoV-43" vertex="1">
          <mxGeometry y="56" width="180" height="26" as="geometry" />
        </mxCell>
        <mxCell id="2YbUK4ISL08a5dzmmpoV-47" value="" style="shape=partialRectangle;top=0;left=0;bottom=0;html=1;fillColor=none;align=left;verticalAlign=top;spacingLeft=4;spacingRight=4;whiteSpace=wrap;overflow=hidden;rotatable=0;points=[];portConstraint=eastwest;part=1;" parent="2YbUK4ISL08a5dzmmpoV-46" vertex="1" connectable="0">
          <mxGeometry width="30" height="26" as="geometry" />
        </mxCell>
        <mxCell id="2YbUK4ISL08a5dzmmpoV-48" value="number (varchar)" style="shape=partialRectangle;top=0;left=0;right=0;bottom=0;html=1;align=left;verticalAlign=top;fillColor=none;spacingLeft=34;spacingRight=4;whiteSpace=wrap;overflow=hidden;rotatable=0;points=[[0,0.5],[1,0.5]];portConstraint=eastwest;dropTarget=0;" parent="2YbUK4ISL08a5dzmmpoV-43" vertex="1">
          <mxGeometry y="82" width="180" height="26" as="geometry" />
        </mxCell>
        <mxCell id="2YbUK4ISL08a5dzmmpoV-49" value="" style="shape=partialRectangle;top=0;left=0;bottom=0;html=1;fillColor=none;align=left;verticalAlign=top;spacingLeft=4;spacingRight=4;whiteSpace=wrap;overflow=hidden;rotatable=0;points=[];portConstraint=eastwest;part=1;" parent="2YbUK4ISL08a5dzmmpoV-48" vertex="1" connectable="0">
          <mxGeometry width="30" height="26" as="geometry" />
        </mxCell>
        <mxCell id="oqj-cZ9m_qDqEeV06WUJ-20" value="hours (int)" style="shape=partialRectangle;top=0;left=0;right=0;bottom=0;html=1;align=left;verticalAlign=top;fillColor=none;spacingLeft=34;spacingRight=4;whiteSpace=wrap;overflow=hidden;rotatable=0;points=[[0,0.5],[1,0.5]];portConstraint=eastwest;dropTarget=0;" parent="2YbUK4ISL08a5dzmmpoV-43" vertex="1">
          <mxGeometry y="108" width="180" height="26" as="geometry" />
        </mxCell>
        <mxCell id="oqj-cZ9m_qDqEeV06WUJ-21" value="" style="shape=partialRectangle;top=0;left=0;bottom=0;html=1;fillColor=none;align=left;verticalAlign=top;spacingLeft=4;spacingRight=4;whiteSpace=wrap;overflow=hidden;rotatable=0;points=[];portConstraint=eastwest;part=1;" parent="oqj-cZ9m_qDqEeV06WUJ-20" vertex="1" connectable="0">
          <mxGeometry width="30" height="26" as="geometry" />
        </mxCell>
        <mxCell id="oqj-cZ9m_qDqEeV06WUJ-10" value="pedagogical_group_id" style="shape=partialRectangle;top=0;left=0;right=0;bottom=0;html=1;align=left;verticalAlign=top;fillColor=none;spacingLeft=34;spacingRight=4;whiteSpace=wrap;overflow=hidden;rotatable=0;points=[[0,0.5],[1,0.5]];portConstraint=eastwest;dropTarget=0;" parent="2YbUK4ISL08a5dzmmpoV-43" vertex="1">
          <mxGeometry y="134" width="180" height="26" as="geometry" />
        </mxCell>
        <mxCell id="oqj-cZ9m_qDqEeV06WUJ-11" value="FK" style="shape=partialRectangle;top=0;left=0;bottom=0;html=1;fillColor=none;align=left;verticalAlign=top;spacingLeft=4;spacingRight=4;whiteSpace=wrap;overflow=hidden;rotatable=0;points=[];portConstraint=eastwest;part=1;" parent="oqj-cZ9m_qDqEeV06WUJ-10" vertex="1" connectable="0">
          <mxGeometry width="30" height="26" as="geometry" />
        </mxCell>
        <mxCell id="2YbUK4ISL08a5dzmmpoV-50" value="" style="shape=partialRectangle;top=0;left=0;right=0;bottom=0;html=1;align=left;verticalAlign=top;fillColor=none;spacingLeft=34;spacingRight=4;whiteSpace=wrap;overflow=hidden;rotatable=0;points=[[0,0.5],[1,0.5]];portConstraint=eastwest;dropTarget=0;" parent="2YbUK4ISL08a5dzmmpoV-43" vertex="1">
          <mxGeometry y="160" width="180" height="10" as="geometry" />
        </mxCell>
        <mxCell id="2YbUK4ISL08a5dzmmpoV-51" value="" style="shape=partialRectangle;top=0;left=0;bottom=0;html=1;fillColor=none;align=left;verticalAlign=top;spacingLeft=4;spacingRight=4;whiteSpace=wrap;overflow=hidden;rotatable=0;points=[];portConstraint=eastwest;part=1;" parent="2YbUK4ISL08a5dzmmpoV-50" vertex="1" connectable="0">
          <mxGeometry width="30" height="10" as="geometry" />
        </mxCell>
        <mxCell id="2YbUK4ISL08a5dzmmpoV-52" value="teacher_availabilities" style="swimlane;html=1;fontStyle=0;childLayout=stackLayout;horizontal=1;startSize=26;fillColor=#e0e0e0;horizontalStack=0;resizeParent=1;resizeLast=0;collapsible=1;marginBottom=0;swimlaneFillColor=#ffffff;align=center;rounded=0;shadow=0;comic=0;labelBackgroundColor=none;strokeWidth=1;fontFamily=Verdana;fontSize=14" parent="1" vertex="1">
          <mxGeometry x="619.0000000000001" y="478" width="180" height="222" as="geometry" />
        </mxCell>
        <mxCell id="2YbUK4ISL08a5dzmmpoV-53" value="id (int)" style="shape=partialRectangle;top=0;left=0;right=0;bottom=1;html=1;align=left;verticalAlign=middle;fillColor=none;spacingLeft=34;spacingRight=4;whiteSpace=wrap;overflow=hidden;rotatable=0;points=[[0,0.5],[1,0.5]];portConstraint=eastwest;dropTarget=0;fontStyle=5;" parent="2YbUK4ISL08a5dzmmpoV-52" vertex="1">
          <mxGeometry y="26" width="180" height="30" as="geometry" />
        </mxCell>
        <mxCell id="2YbUK4ISL08a5dzmmpoV-54" value="PK" style="shape=partialRectangle;top=0;left=0;bottom=0;html=1;fillColor=none;align=left;verticalAlign=middle;spacingLeft=4;spacingRight=4;whiteSpace=wrap;overflow=hidden;rotatable=0;points=[];portConstraint=eastwest;part=1;" parent="2YbUK4ISL08a5dzmmpoV-53" vertex="1" connectable="0">
          <mxGeometry width="30" height="30" as="geometry" />
        </mxCell>
        <mxCell id="2YbUK4ISL08a5dzmmpoV-55" value="availability_date (date)" style="shape=partialRectangle;top=0;left=0;right=0;bottom=0;html=1;align=left;verticalAlign=top;fillColor=none;spacingLeft=34;spacingRight=4;whiteSpace=wrap;overflow=hidden;rotatable=0;points=[[0,0.5],[1,0.5]];portConstraint=eastwest;dropTarget=0;" parent="2YbUK4ISL08a5dzmmpoV-52" vertex="1">
          <mxGeometry y="56" width="180" height="26" as="geometry" />
        </mxCell>
        <mxCell id="2YbUK4ISL08a5dzmmpoV-56" value="" style="shape=partialRectangle;top=0;left=0;bottom=0;html=1;fillColor=none;align=left;verticalAlign=top;spacingLeft=4;spacingRight=4;whiteSpace=wrap;overflow=hidden;rotatable=0;points=[];portConstraint=eastwest;part=1;" parent="2YbUK4ISL08a5dzmmpoV-55" vertex="1" connectable="0">
          <mxGeometry width="30" height="26" as="geometry" />
        </mxCell>
        <mxCell id="2YbUK4ISL08a5dzmmpoV-57" value="is_locked (bool)" style="shape=partialRectangle;top=0;left=0;right=0;bottom=0;html=1;align=left;verticalAlign=top;fillColor=none;spacingLeft=34;spacingRight=4;whiteSpace=wrap;overflow=hidden;rotatable=0;points=[[0,0.5],[1,0.5]];portConstraint=eastwest;dropTarget=0;" parent="2YbUK4ISL08a5dzmmpoV-52" vertex="1">
          <mxGeometry y="82" width="180" height="26" as="geometry" />
        </mxCell>
        <mxCell id="2YbUK4ISL08a5dzmmpoV-58" value="" style="shape=partialRectangle;top=0;left=0;bottom=0;html=1;fillColor=none;align=left;verticalAlign=top;spacingLeft=4;spacingRight=4;whiteSpace=wrap;overflow=hidden;rotatable=0;points=[];portConstraint=eastwest;part=1;" parent="2YbUK4ISL08a5dzmmpoV-57" vertex="1" connectable="0">
          <mxGeometry width="30" height="26" as="geometry" />
        </mxCell>
        <mxCell id="XMIAzyzYhjPNlsQmTrW_-4" value="is_viewed (bool)" style="shape=partialRectangle;top=0;left=0;right=0;bottom=0;html=1;align=left;verticalAlign=top;fillColor=none;spacingLeft=34;spacingRight=4;whiteSpace=wrap;overflow=hidden;rotatable=0;points=[[0,0.5],[1,0.5]];portConstraint=eastwest;dropTarget=0;" parent="2YbUK4ISL08a5dzmmpoV-52" vertex="1">
          <mxGeometry y="108" width="180" height="26" as="geometry" />
        </mxCell>
        <mxCell id="XMIAzyzYhjPNlsQmTrW_-5" value="" style="shape=partialRectangle;top=0;left=0;bottom=0;html=1;fillColor=none;align=left;verticalAlign=top;spacingLeft=4;spacingRight=4;whiteSpace=wrap;overflow=hidden;rotatable=0;points=[];portConstraint=eastwest;part=1;" parent="XMIAzyzYhjPNlsQmTrW_-4" vertex="1" connectable="0">
          <mxGeometry width="30" height="26" as="geometry" />
        </mxCell>
        <mxCell id="2YbUK4ISL08a5dzmmpoV-59" value="hour_blocks_id (int)" style="shape=partialRectangle;top=0;left=0;right=0;bottom=0;html=1;align=left;verticalAlign=top;fillColor=none;spacingLeft=34;spacingRight=4;whiteSpace=wrap;overflow=hidden;rotatable=0;points=[[0,0.5],[1,0.5]];portConstraint=eastwest;dropTarget=0;" parent="2YbUK4ISL08a5dzmmpoV-52" vertex="1">
          <mxGeometry y="134" width="180" height="26" as="geometry" />
        </mxCell>
        <mxCell id="2YbUK4ISL08a5dzmmpoV-60" value="FK" style="shape=partialRectangle;top=0;left=0;bottom=0;html=1;fillColor=none;align=left;verticalAlign=top;spacingLeft=4;spacingRight=4;whiteSpace=wrap;overflow=hidden;rotatable=0;points=[];portConstraint=eastwest;part=1;" parent="2YbUK4ISL08a5dzmmpoV-59" vertex="1" connectable="0">
          <mxGeometry width="30" height="26" as="geometry" />
        </mxCell>
        <mxCell id="2YbUK4ISL08a5dzmmpoV-61" value="availability_type_id (int)" style="shape=partialRectangle;top=0;left=0;right=0;bottom=0;html=1;align=left;verticalAlign=top;fillColor=none;spacingLeft=34;spacingRight=4;whiteSpace=wrap;overflow=hidden;rotatable=0;points=[[0,0.5],[1,0.5]];portConstraint=eastwest;dropTarget=0;" parent="2YbUK4ISL08a5dzmmpoV-52" vertex="1">
          <mxGeometry y="160" width="180" height="26" as="geometry" />
        </mxCell>
        <mxCell id="2YbUK4ISL08a5dzmmpoV-62" value="FK" style="shape=partialRectangle;top=0;left=0;bottom=0;html=1;fillColor=none;align=left;verticalAlign=top;spacingLeft=4;spacingRight=4;whiteSpace=wrap;overflow=hidden;rotatable=0;points=[];portConstraint=eastwest;part=1;" parent="2YbUK4ISL08a5dzmmpoV-61" vertex="1" connectable="0">
          <mxGeometry width="30" height="26" as="geometry" />
        </mxCell>
        <mxCell id="2YbUK4ISL08a5dzmmpoV-63" value="userr_id (int)" style="shape=partialRectangle;top=0;left=0;right=0;bottom=0;html=1;align=left;verticalAlign=top;fillColor=none;spacingLeft=34;spacingRight=4;whiteSpace=wrap;overflow=hidden;rotatable=0;points=[[0,0.5],[1,0.5]];portConstraint=eastwest;dropTarget=0;" parent="2YbUK4ISL08a5dzmmpoV-52" vertex="1">
          <mxGeometry y="186" width="180" height="26" as="geometry" />
        </mxCell>
        <mxCell id="2YbUK4ISL08a5dzmmpoV-64" value="FK" style="shape=partialRectangle;top=0;left=0;bottom=0;html=1;fillColor=none;align=left;verticalAlign=top;spacingLeft=4;spacingRight=4;whiteSpace=wrap;overflow=hidden;rotatable=0;points=[];portConstraint=eastwest;part=1;" parent="2YbUK4ISL08a5dzmmpoV-63" vertex="1" connectable="0">
          <mxGeometry width="30" height="26" as="geometry" />
        </mxCell>
        <mxCell id="2YbUK4ISL08a5dzmmpoV-65" value="" style="shape=partialRectangle;top=0;left=0;right=0;bottom=0;html=1;align=left;verticalAlign=top;fillColor=none;spacingLeft=34;spacingRight=4;whiteSpace=wrap;overflow=hidden;rotatable=0;points=[[0,0.5],[1,0.5]];portConstraint=eastwest;dropTarget=0;" parent="2YbUK4ISL08a5dzmmpoV-52" vertex="1">
          <mxGeometry y="212" width="180" height="10" as="geometry" />
        </mxCell>
        <mxCell id="2YbUK4ISL08a5dzmmpoV-66" value="" style="shape=partialRectangle;top=0;left=0;bottom=0;html=1;fillColor=none;align=left;verticalAlign=top;spacingLeft=4;spacingRight=4;whiteSpace=wrap;overflow=hidden;rotatable=0;points=[];portConstraint=eastwest;part=1;" parent="2YbUK4ISL08a5dzmmpoV-65" vertex="1" connectable="0">
          <mxGeometry width="30" height="10" as="geometry" />
        </mxCell>
        <mxCell id="2YbUK4ISL08a5dzmmpoV-67" value="availability_types" style="swimlane;html=1;fontStyle=0;childLayout=stackLayout;horizontal=1;startSize=26;fillColor=#e0e0e0;horizontalStack=0;resizeParent=1;resizeLast=0;collapsible=1;marginBottom=0;swimlaneFillColor=#ffffff;align=center;rounded=0;shadow=0;comic=0;labelBackgroundColor=none;strokeWidth=1;fontFamily=Verdana;fontSize=14" parent="1" vertex="1">
          <mxGeometry x="295" y="690" width="180" height="118" as="geometry" />
        </mxCell>
        <mxCell id="Ckj1gUC8P8zu2XmUC1Yf-35" value="id (int)" style="shape=partialRectangle;top=0;left=0;right=0;bottom=1;html=1;align=left;verticalAlign=middle;fillColor=none;spacingLeft=34;spacingRight=4;whiteSpace=wrap;overflow=hidden;rotatable=0;points=[[0,0.5],[1,0.5]];portConstraint=eastwest;dropTarget=0;fontStyle=5;" parent="2YbUK4ISL08a5dzmmpoV-67" vertex="1">
          <mxGeometry y="26" width="180" height="30" as="geometry" />
        </mxCell>
        <mxCell id="Ckj1gUC8P8zu2XmUC1Yf-36" value="PK" style="shape=partialRectangle;top=0;left=0;bottom=0;html=1;fillColor=none;align=left;verticalAlign=middle;spacingLeft=4;spacingRight=4;whiteSpace=wrap;overflow=hidden;rotatable=0;points=[];portConstraint=eastwest;part=1;" parent="Ckj1gUC8P8zu2XmUC1Yf-35" vertex="1" connectable="0">
          <mxGeometry width="30" height="30" as="geometry" />
        </mxCell>
        <mxCell id="2YbUK4ISL08a5dzmmpoV-70" value="name (varchar)" style="shape=partialRectangle;top=0;left=0;right=0;bottom=0;html=1;align=left;verticalAlign=top;fillColor=none;spacingLeft=34;spacingRight=4;whiteSpace=wrap;overflow=hidden;rotatable=0;points=[[0,0.5],[1,0.5]];portConstraint=eastwest;dropTarget=0;" parent="2YbUK4ISL08a5dzmmpoV-67" vertex="1">
          <mxGeometry y="56" width="180" height="26" as="geometry" />
        </mxCell>
        <mxCell id="2YbUK4ISL08a5dzmmpoV-71" value="" style="shape=partialRectangle;top=0;left=0;bottom=0;html=1;fillColor=none;align=left;verticalAlign=top;spacingLeft=4;spacingRight=4;whiteSpace=wrap;overflow=hidden;rotatable=0;points=[];portConstraint=eastwest;part=1;" parent="2YbUK4ISL08a5dzmmpoV-70" vertex="1" connectable="0">
          <mxGeometry width="30" height="26" as="geometry" />
        </mxCell>
        <mxCell id="XMIAzyzYhjPNlsQmTrW_-1" value="color (varchar)" style="shape=partialRectangle;top=0;left=0;right=0;bottom=0;html=1;align=left;verticalAlign=top;fillColor=none;spacingLeft=34;spacingRight=4;whiteSpace=wrap;overflow=hidden;rotatable=0;points=[[0,0.5],[1,0.5]];portConstraint=eastwest;dropTarget=0;" parent="2YbUK4ISL08a5dzmmpoV-67" vertex="1">
          <mxGeometry y="82" width="180" height="26" as="geometry" />
        </mxCell>
        <mxCell id="XMIAzyzYhjPNlsQmTrW_-2" value="" style="shape=partialRectangle;top=0;left=0;bottom=0;html=1;fillColor=none;align=left;verticalAlign=top;spacingLeft=4;spacingRight=4;whiteSpace=wrap;overflow=hidden;rotatable=0;points=[];portConstraint=eastwest;part=1;" parent="XMIAzyzYhjPNlsQmTrW_-1" vertex="1" connectable="0">
          <mxGeometry width="30" height="26" as="geometry" />
        </mxCell>
        <mxCell id="2YbUK4ISL08a5dzmmpoV-79" value="" style="shape=partialRectangle;top=0;left=0;right=0;bottom=0;html=1;align=left;verticalAlign=top;fillColor=none;spacingLeft=34;spacingRight=4;whiteSpace=wrap;overflow=hidden;rotatable=0;points=[[0,0.5],[1,0.5]];portConstraint=eastwest;dropTarget=0;" parent="2YbUK4ISL08a5dzmmpoV-67" vertex="1">
          <mxGeometry y="108" width="180" height="10" as="geometry" />
        </mxCell>
        <mxCell id="2YbUK4ISL08a5dzmmpoV-80" value="" style="shape=partialRectangle;top=0;left=0;bottom=0;html=1;fillColor=none;align=left;verticalAlign=top;spacingLeft=4;spacingRight=4;whiteSpace=wrap;overflow=hidden;rotatable=0;points=[];portConstraint=eastwest;part=1;" parent="2YbUK4ISL08a5dzmmpoV-79" vertex="1" connectable="0">
          <mxGeometry width="30" height="10" as="geometry" />
        </mxCell>
        <mxCell id="2YbUK4ISL08a5dzmmpoV-74" value="hour_blocks" style="swimlane;html=1;fontStyle=0;childLayout=stackLayout;horizontal=1;startSize=26;fillColor=#e0e0e0;horizontalStack=0;resizeParent=1;resizeLast=0;collapsible=1;marginBottom=0;swimlaneFillColor=#ffffff;align=center;rounded=0;shadow=0;comic=0;labelBackgroundColor=none;strokeWidth=1;fontFamily=Verdana;fontSize=14" parent="1" vertex="1">
          <mxGeometry x="295.0000000000002" y="525" width="180" height="118" as="geometry" />
        </mxCell>
        <mxCell id="2YbUK4ISL08a5dzmmpoV-75" value="id (int)" style="shape=partialRectangle;top=0;left=0;right=0;bottom=1;html=1;align=left;verticalAlign=middle;fillColor=none;spacingLeft=34;spacingRight=4;whiteSpace=wrap;overflow=hidden;rotatable=0;points=[[0,0.5],[1,0.5]];portConstraint=eastwest;dropTarget=0;fontStyle=5;" parent="2YbUK4ISL08a5dzmmpoV-74" vertex="1">
          <mxGeometry y="26" width="180" height="30" as="geometry" />
        </mxCell>
        <mxCell id="2YbUK4ISL08a5dzmmpoV-76" value="PK" style="shape=partialRectangle;top=0;left=0;bottom=0;html=1;fillColor=none;align=left;verticalAlign=middle;spacingLeft=4;spacingRight=4;whiteSpace=wrap;overflow=hidden;rotatable=0;points=[];portConstraint=eastwest;part=1;" parent="2YbUK4ISL08a5dzmmpoV-75" vertex="1" connectable="0">
          <mxGeometry width="30" height="30" as="geometry" />
        </mxCell>
        <mxCell id="2YbUK4ISL08a5dzmmpoV-77" value="hour_beguining: (time)" style="shape=partialRectangle;top=0;left=0;right=0;bottom=0;html=1;align=left;verticalAlign=top;fillColor=none;spacingLeft=34;spacingRight=4;whiteSpace=wrap;overflow=hidden;rotatable=0;points=[[0,0.5],[1,0.5]];portConstraint=eastwest;dropTarget=0;" parent="2YbUK4ISL08a5dzmmpoV-74" vertex="1">
          <mxGeometry y="56" width="180" height="26" as="geometry" />
        </mxCell>
        <mxCell id="2YbUK4ISL08a5dzmmpoV-78" value="" style="shape=partialRectangle;top=0;left=0;bottom=0;html=1;fillColor=none;align=left;verticalAlign=top;spacingLeft=4;spacingRight=4;whiteSpace=wrap;overflow=hidden;rotatable=0;points=[];portConstraint=eastwest;part=1;" parent="2YbUK4ISL08a5dzmmpoV-77" vertex="1" connectable="0">
          <mxGeometry width="30" height="26" as="geometry" />
        </mxCell>
        <mxCell id="Ckj1gUC8P8zu2XmUC1Yf-37" value="hour_end: (time)" style="shape=partialRectangle;top=0;left=0;right=0;bottom=0;html=1;align=left;verticalAlign=top;fillColor=none;spacingLeft=34;spacingRight=4;whiteSpace=wrap;overflow=hidden;rotatable=0;points=[[0,0.5],[1,0.5]];portConstraint=eastwest;dropTarget=0;" parent="2YbUK4ISL08a5dzmmpoV-74" vertex="1">
          <mxGeometry y="82" width="180" height="26" as="geometry" />
        </mxCell>
        <mxCell id="Ckj1gUC8P8zu2XmUC1Yf-38" value="" style="shape=partialRectangle;top=0;left=0;bottom=0;html=1;fillColor=none;align=left;verticalAlign=top;spacingLeft=4;spacingRight=4;whiteSpace=wrap;overflow=hidden;rotatable=0;points=[];portConstraint=eastwest;part=1;" parent="Ckj1gUC8P8zu2XmUC1Yf-37" vertex="1" connectable="0">
          <mxGeometry width="30" height="26" as="geometry" />
        </mxCell>
        <mxCell id="2YbUK4ISL08a5dzmmpoV-81" value="" style="edgeStyle=entityRelationEdgeStyle;fontSize=12;html=1;endArrow=ERone;startArrow=ERone;rounded=0;entryX=1;entryY=0.5;entryDx=0;entryDy=0;startFill=0;exitX=0;exitY=0.5;exitDx=0;exitDy=0;endFill=0;" parent="1" source="2YbUK4ISL08a5dzmmpoV-59" target="2YbUK4ISL08a5dzmmpoV-75" edge="1">
          <mxGeometry width="100" height="100" relative="1" as="geometry">
            <mxPoint x="902.9900000000002" y="602" as="sourcePoint" />
            <mxPoint x="1037.9900000000002" y="848" as="targetPoint" />
          </mxGeometry>
        </mxCell>
        <mxCell id="2YbUK4ISL08a5dzmmpoV-82" value="" style="edgeStyle=entityRelationEdgeStyle;fontSize=12;html=1;endArrow=ERone;startArrow=ERone;rounded=0;startFill=0;endFill=0;entryX=0;entryY=0.5;entryDx=0;entryDy=0;exitX=1;exitY=0.5;exitDx=0;exitDy=0;" parent="1" source="Ckj1gUC8P8zu2XmUC1Yf-35" target="2YbUK4ISL08a5dzmmpoV-61" edge="1">
          <mxGeometry width="100" height="100" relative="1" as="geometry">
            <mxPoint x="430" y="567" as="sourcePoint" />
            <mxPoint x="470" y="717" as="targetPoint" />
            <Array as="points">
              <mxPoint x="470" y="717" />
              <mxPoint x="430" y="607" />
              <mxPoint x="550" y="617" />
              <mxPoint x="560" y="627" />
              <mxPoint x="560" y="617" />
            </Array>
          </mxGeometry>
        </mxCell>
        <mxCell id="2YbUK4ISL08a5dzmmpoV-98" style="edgeStyle=orthogonalEdgeStyle;rounded=0;orthogonalLoop=1;jettySize=auto;html=1;exitX=1;exitY=0.5;exitDx=0;exitDy=0;entryX=0;entryY=0.5;entryDx=0;entryDy=0;startArrow=ERone;startFill=0;endArrow=ERone;endFill=0;" parent="1" source="oqj-cZ9m_qDqEeV06WUJ-29" target="2YbUK4ISL08a5dzmmpoV-19" edge="1">
          <mxGeometry relative="1" as="geometry">
            <mxPoint x="860.0000000000002" y="752" as="targetPoint" />
            <Array as="points">
              <mxPoint x="840" y="142" />
              <mxPoint x="840" y="722" />
            </Array>
          </mxGeometry>
        </mxCell>
        <mxCell id="2YbUK4ISL08a5dzmmpoV-99" style="edgeStyle=orthogonalEdgeStyle;rounded=0;orthogonalLoop=1;jettySize=auto;html=1;exitX=0;exitY=0.5;exitDx=0;exitDy=0;entryX=1;entryY=0.5;entryDx=0;entryDy=0;startArrow=ERone;startFill=0;endArrow=ERzeroToMany;endFill=0;" parent="1" source="2YbUK4ISL08a5dzmmpoV-44" target="2YbUK4ISL08a5dzmmpoV-15" edge="1">
          <mxGeometry relative="1" as="geometry" />
        </mxCell>
        <mxCell id="2YbUK4ISL08a5dzmmpoV-100" value="" style="edgeStyle=orthogonalEdgeStyle;rounded=0;orthogonalLoop=1;jettySize=auto;html=1;exitX=0;exitY=0.5;exitDx=0;exitDy=0;entryX=0;entryY=0.5;entryDx=0;entryDy=0;endArrow=ERzeroToOne;endFill=0;startArrow=ERzeroToMany;startFill=0;" parent="1" source="2YbUK4ISL08a5dzmmpoV-63" target="2YbUK4ISL08a5dzmmpoV-22" edge="1">
          <mxGeometry x="-0.0594" y="18" relative="1" as="geometry">
            <mxPoint as="offset" />
          </mxGeometry>
        </mxCell>
        <mxCell id="oqj-cZ9m_qDqEeV06WUJ-27" value="&lt;div&gt;&lt;br&gt;&lt;/div&gt;" style="edgeLabel;html=1;align=center;verticalAlign=middle;resizable=0;points=[];" parent="2YbUK4ISL08a5dzmmpoV-100" vertex="1" connectable="0">
          <mxGeometry x="0.012" y="-2" relative="1" as="geometry">
            <mxPoint as="offset" />
          </mxGeometry>
        </mxCell>
        <mxCell id="2YbUK4ISL08a5dzmmpoV-101" value="course_ufcd" style="swimlane;html=1;fontStyle=0;childLayout=stackLayout;horizontal=1;startSize=26;fillColor=#e0e0e0;horizontalStack=0;resizeParent=1;resizeLast=0;collapsible=1;marginBottom=0;swimlaneFillColor=#ffffff;align=center;rounded=0;shadow=0;comic=0;labelBackgroundColor=none;strokeWidth=1;fontFamily=Verdana;fontSize=14" parent="1" vertex="1">
          <mxGeometry x="1158.0000000000002" y="477" width="180" height="120" as="geometry" />
        </mxCell>
        <mxCell id="2YbUK4ISL08a5dzmmpoV-102" value="id  (int)" style="shape=partialRectangle;top=0;left=0;right=0;bottom=1;html=1;align=left;verticalAlign=middle;fillColor=none;spacingLeft=34;spacingRight=4;whiteSpace=wrap;overflow=hidden;rotatable=0;points=[[0,0.5],[1,0.5]];portConstraint=eastwest;dropTarget=0;fontStyle=5;" parent="2YbUK4ISL08a5dzmmpoV-101" vertex="1">
          <mxGeometry y="26" width="180" height="30" as="geometry" />
        </mxCell>
        <mxCell id="2YbUK4ISL08a5dzmmpoV-103" value="PK" style="shape=partialRectangle;top=0;left=0;bottom=0;html=1;fillColor=none;align=left;verticalAlign=middle;spacingLeft=4;spacingRight=4;whiteSpace=wrap;overflow=hidden;rotatable=0;points=[];portConstraint=eastwest;part=1;" parent="2YbUK4ISL08a5dzmmpoV-102" vertex="1" connectable="0">
          <mxGeometry width="30" height="30" as="geometry" />
        </mxCell>
        <mxCell id="2YbUK4ISL08a5dzmmpoV-104" value="course_id (int)" style="shape=partialRectangle;top=0;left=0;right=0;bottom=0;html=1;align=left;verticalAlign=top;fillColor=none;spacingLeft=34;spacingRight=4;whiteSpace=wrap;overflow=hidden;rotatable=0;points=[[0,0.5],[1,0.5]];portConstraint=eastwest;dropTarget=0;" parent="2YbUK4ISL08a5dzmmpoV-101" vertex="1">
          <mxGeometry y="56" width="180" height="26" as="geometry" />
        </mxCell>
        <mxCell id="2YbUK4ISL08a5dzmmpoV-105" value="FK" style="shape=partialRectangle;top=0;left=0;bottom=0;html=1;fillColor=none;align=left;verticalAlign=top;spacingLeft=4;spacingRight=4;whiteSpace=wrap;overflow=hidden;rotatable=0;points=[];portConstraint=eastwest;part=1;" parent="2YbUK4ISL08a5dzmmpoV-104" vertex="1" connectable="0">
          <mxGeometry width="30" height="26" as="geometry" />
        </mxCell>
        <mxCell id="2YbUK4ISL08a5dzmmpoV-106" value="" style="shape=partialRectangle;top=0;left=0;right=0;bottom=0;html=1;align=left;verticalAlign=top;fillColor=none;spacingLeft=34;spacingRight=4;whiteSpace=wrap;overflow=hidden;rotatable=0;points=[[0,0.5],[1,0.5]];portConstraint=eastwest;dropTarget=0;" parent="2YbUK4ISL08a5dzmmpoV-101" vertex="1">
          <mxGeometry y="82" width="180" height="10" as="geometry" />
        </mxCell>
        <mxCell id="2YbUK4ISL08a5dzmmpoV-107" value="" style="shape=partialRectangle;top=0;left=0;bottom=0;html=1;fillColor=none;align=left;verticalAlign=top;spacingLeft=4;spacingRight=4;whiteSpace=wrap;overflow=hidden;rotatable=0;points=[];portConstraint=eastwest;part=1;" parent="2YbUK4ISL08a5dzmmpoV-106" vertex="1" connectable="0">
          <mxGeometry width="30" height="10" as="geometry" />
        </mxCell>
        <mxCell id="2YbUK4ISL08a5dzmmpoV-108" value="ufcd_id (int)" style="shape=partialRectangle;top=0;left=0;right=0;bottom=0;html=1;align=left;verticalAlign=top;fillColor=none;spacingLeft=34;spacingRight=4;whiteSpace=wrap;overflow=hidden;rotatable=0;points=[[0,0.5],[1,0.5]];portConstraint=eastwest;dropTarget=0;" parent="2YbUK4ISL08a5dzmmpoV-101" vertex="1">
          <mxGeometry y="92" width="180" height="26" as="geometry" />
        </mxCell>
        <mxCell id="2YbUK4ISL08a5dzmmpoV-109" value="FK" style="shape=partialRectangle;top=0;left=0;bottom=0;html=1;fillColor=none;align=left;verticalAlign=top;spacingLeft=4;spacingRight=4;whiteSpace=wrap;overflow=hidden;rotatable=0;points=[];portConstraint=eastwest;part=1;" parent="2YbUK4ISL08a5dzmmpoV-108" vertex="1" connectable="0">
          <mxGeometry width="30" height="26" as="geometry" />
        </mxCell>
        <mxCell id="2YbUK4ISL08a5dzmmpoV-110" style="edgeStyle=orthogonalEdgeStyle;rounded=0;orthogonalLoop=1;jettySize=auto;html=1;exitX=0;exitY=0.5;exitDx=0;exitDy=0;endArrow=ERzeroToMany;endFill=0;startArrow=ERone;startFill=0;" parent="1" source="2YbUK4ISL08a5dzmmpoV-2" target="2YbUK4ISL08a5dzmmpoV-41" edge="1">
          <mxGeometry relative="1" as="geometry" />
        </mxCell>
        <mxCell id="2YbUK4ISL08a5dzmmpoV-111" style="edgeStyle=orthogonalEdgeStyle;rounded=0;orthogonalLoop=1;jettySize=auto;html=1;exitX=1;exitY=0.5;exitDx=0;exitDy=0;startArrow=ERone;startFill=0;endArrow=ERzeroToMany;endFill=0;entryX=1;entryY=0.5;entryDx=0;entryDy=0;" parent="1" source="2YbUK4ISL08a5dzmmpoV-2" target="2YbUK4ISL08a5dzmmpoV-104" edge="1">
          <mxGeometry relative="1" as="geometry">
            <mxPoint x="1580" y="430" as="targetPoint" />
            <Array as="points">
              <mxPoint x="1590" y="68" />
              <mxPoint x="1590" y="546" />
            </Array>
          </mxGeometry>
        </mxCell>
        <mxCell id="2YbUK4ISL08a5dzmmpoV-112" style="edgeStyle=orthogonalEdgeStyle;rounded=0;orthogonalLoop=1;jettySize=auto;html=1;exitX=1;exitY=0.5;exitDx=0;exitDy=0;entryX=1;entryY=0.5;entryDx=0;entryDy=0;startArrow=ERone;startFill=0;endArrow=ERzeroToMany;endFill=0;" parent="1" source="2YbUK4ISL08a5dzmmpoV-44" target="2YbUK4ISL08a5dzmmpoV-108" edge="1">
          <mxGeometry relative="1" as="geometry" />
        </mxCell>
        <mxCell id="2YbUK4ISL08a5dzmmpoV-113" value="specialisation_areas" style="swimlane;html=1;fontStyle=0;childLayout=stackLayout;horizontal=1;startSize=26;fillColor=#e0e0e0;horizontalStack=0;resizeParent=1;resizeLast=0;collapsible=1;marginBottom=0;swimlaneFillColor=#ffffff;align=center;rounded=0;shadow=0;comic=0;labelBackgroundColor=none;strokeWidth=1;fontFamily=Verdana;fontSize=14" parent="1" vertex="1">
          <mxGeometry x="20" y="27" width="180" height="123" as="geometry" />
        </mxCell>
        <mxCell id="IYcif_MQp60Ecr10zZQo-1" value="id  (int)" style="shape=partialRectangle;top=0;left=0;right=0;bottom=1;html=1;align=left;verticalAlign=middle;fillColor=none;spacingLeft=34;spacingRight=4;whiteSpace=wrap;overflow=hidden;rotatable=0;points=[[0,0.5],[1,0.5]];portConstraint=eastwest;dropTarget=0;fontStyle=5;" vertex="1" parent="2YbUK4ISL08a5dzmmpoV-113">
          <mxGeometry y="26" width="180" height="30" as="geometry" />
        </mxCell>
        <mxCell id="IYcif_MQp60Ecr10zZQo-2" value="PK" style="shape=partialRectangle;top=0;left=0;bottom=0;html=1;fillColor=none;align=left;verticalAlign=middle;spacingLeft=4;spacingRight=4;whiteSpace=wrap;overflow=hidden;rotatable=0;points=[];portConstraint=eastwest;part=1;" vertex="1" connectable="0" parent="IYcif_MQp60Ecr10zZQo-1">
          <mxGeometry width="30" height="30" as="geometry" />
        </mxCell>
        <mxCell id="IYcif_MQp60Ecr10zZQo-3" value="number (int)" style="shape=partialRectangle;top=0;left=0;right=0;bottom=0;html=1;align=left;verticalAlign=top;fillColor=none;spacingLeft=34;spacingRight=4;whiteSpace=wrap;overflow=hidden;rotatable=0;points=[[0,0.5],[1,0.5]];portConstraint=eastwest;dropTarget=0;" vertex="1" parent="2YbUK4ISL08a5dzmmpoV-113">
          <mxGeometry y="56" width="180" height="26" as="geometry" />
        </mxCell>
        <mxCell id="IYcif_MQp60Ecr10zZQo-4" value="" style="shape=partialRectangle;top=0;left=0;bottom=0;html=1;fillColor=none;align=left;verticalAlign=top;spacingLeft=4;spacingRight=4;whiteSpace=wrap;overflow=hidden;rotatable=0;points=[];portConstraint=eastwest;part=1;" vertex="1" connectable="0" parent="IYcif_MQp60Ecr10zZQo-3">
          <mxGeometry width="30" height="26" as="geometry" />
        </mxCell>
        <mxCell id="2YbUK4ISL08a5dzmmpoV-116" value="name (varchar)" style="shape=partialRectangle;top=0;left=0;right=0;bottom=0;html=1;align=left;verticalAlign=top;fillColor=none;spacingLeft=34;spacingRight=4;whiteSpace=wrap;overflow=hidden;rotatable=0;points=[[0,0.5],[1,0.5]];portConstraint=eastwest;dropTarget=0;" parent="2YbUK4ISL08a5dzmmpoV-113" vertex="1">
          <mxGeometry y="82" width="180" height="26" as="geometry" />
        </mxCell>
        <mxCell id="2YbUK4ISL08a5dzmmpoV-117" value="" style="shape=partialRectangle;top=0;left=0;bottom=0;html=1;fillColor=none;align=left;verticalAlign=top;spacingLeft=4;spacingRight=4;whiteSpace=wrap;overflow=hidden;rotatable=0;points=[];portConstraint=eastwest;part=1;" parent="2YbUK4ISL08a5dzmmpoV-116" vertex="1" connectable="0">
          <mxGeometry width="30" height="26" as="geometry" />
        </mxCell>
        <mxCell id="2YbUK4ISL08a5dzmmpoV-118" value="" style="shape=partialRectangle;top=0;left=0;right=0;bottom=0;html=1;align=left;verticalAlign=top;fillColor=none;spacingLeft=34;spacingRight=4;whiteSpace=wrap;overflow=hidden;rotatable=0;points=[[0,0.5],[1,0.5]];portConstraint=eastwest;dropTarget=0;" parent="2YbUK4ISL08a5dzmmpoV-113" vertex="1">
          <mxGeometry y="108" width="180" height="10" as="geometry" />
        </mxCell>
        <mxCell id="2YbUK4ISL08a5dzmmpoV-119" value="" style="shape=partialRectangle;top=0;left=0;bottom=0;html=1;fillColor=none;align=left;verticalAlign=top;spacingLeft=4;spacingRight=4;whiteSpace=wrap;overflow=hidden;rotatable=0;points=[];portConstraint=eastwest;part=1;" parent="2YbUK4ISL08a5dzmmpoV-118" vertex="1" connectable="0">
          <mxGeometry width="30" height="10" as="geometry" />
        </mxCell>
        <mxCell id="2YbUK4ISL08a5dzmmpoV-120" value="pedagogical_groups" style="swimlane;html=1;fontStyle=0;childLayout=stackLayout;horizontal=1;startSize=26;fillColor=#e0e0e0;horizontalStack=0;resizeParent=1;resizeLast=0;collapsible=1;marginBottom=0;swimlaneFillColor=#ffffff;align=center;rounded=0;shadow=0;comic=0;labelBackgroundColor=none;strokeWidth=1;fontFamily=Verdana;fontSize=14" parent="1" vertex="1">
          <mxGeometry x="20" y="627" width="180" height="92" as="geometry" />
        </mxCell>
        <mxCell id="2YbUK4ISL08a5dzmmpoV-121" value="id (int)" style="shape=partialRectangle;top=0;left=0;right=0;bottom=1;html=1;align=left;verticalAlign=middle;fillColor=none;spacingLeft=34;spacingRight=4;whiteSpace=wrap;overflow=hidden;rotatable=0;points=[[0,0.5],[1,0.5]];portConstraint=eastwest;dropTarget=0;fontStyle=5;" parent="2YbUK4ISL08a5dzmmpoV-120" vertex="1">
          <mxGeometry y="26" width="180" height="30" as="geometry" />
        </mxCell>
        <mxCell id="2YbUK4ISL08a5dzmmpoV-122" value="PK" style="shape=partialRectangle;top=0;left=0;bottom=0;html=1;fillColor=none;align=left;verticalAlign=middle;spacingLeft=4;spacingRight=4;whiteSpace=wrap;overflow=hidden;rotatable=0;points=[];portConstraint=eastwest;part=1;" parent="2YbUK4ISL08a5dzmmpoV-121" vertex="1" connectable="0">
          <mxGeometry width="30" height="30" as="geometry" />
        </mxCell>
        <mxCell id="2YbUK4ISL08a5dzmmpoV-123" value="name (varchar)" style="shape=partialRectangle;top=0;left=0;right=0;bottom=0;html=1;align=left;verticalAlign=top;fillColor=none;spacingLeft=34;spacingRight=4;whiteSpace=wrap;overflow=hidden;rotatable=0;points=[[0,0.5],[1,0.5]];portConstraint=eastwest;dropTarget=0;" parent="2YbUK4ISL08a5dzmmpoV-120" vertex="1">
          <mxGeometry y="56" width="180" height="26" as="geometry" />
        </mxCell>
        <mxCell id="2YbUK4ISL08a5dzmmpoV-124" value="" style="shape=partialRectangle;top=0;left=0;bottom=0;html=1;fillColor=none;align=left;verticalAlign=top;spacingLeft=4;spacingRight=4;whiteSpace=wrap;overflow=hidden;rotatable=0;points=[];portConstraint=eastwest;part=1;" parent="2YbUK4ISL08a5dzmmpoV-123" vertex="1" connectable="0">
          <mxGeometry width="30" height="26" as="geometry" />
        </mxCell>
        <mxCell id="2YbUK4ISL08a5dzmmpoV-125" value="" style="shape=partialRectangle;top=0;left=0;right=0;bottom=0;html=1;align=left;verticalAlign=top;fillColor=none;spacingLeft=34;spacingRight=4;whiteSpace=wrap;overflow=hidden;rotatable=0;points=[[0,0.5],[1,0.5]];portConstraint=eastwest;dropTarget=0;" parent="2YbUK4ISL08a5dzmmpoV-120" vertex="1">
          <mxGeometry y="82" width="180" height="10" as="geometry" />
        </mxCell>
        <mxCell id="2YbUK4ISL08a5dzmmpoV-126" value="" style="shape=partialRectangle;top=0;left=0;bottom=0;html=1;fillColor=none;align=left;verticalAlign=top;spacingLeft=4;spacingRight=4;whiteSpace=wrap;overflow=hidden;rotatable=0;points=[];portConstraint=eastwest;part=1;" parent="2YbUK4ISL08a5dzmmpoV-125" vertex="1" connectable="0">
          <mxGeometry width="30" height="10" as="geometry" />
        </mxCell>
        <mxCell id="2YbUK4ISL08a5dzmmpoV-127" value="&lt;div&gt;specialisation_area_users&lt;/div&gt;" style="swimlane;html=1;fontStyle=0;childLayout=stackLayout;horizontal=1;startSize=26;fillColor=#e0e0e0;horizontalStack=0;resizeParent=1;resizeLast=0;collapsible=1;marginBottom=0;swimlaneFillColor=#ffffff;align=center;rounded=0;shadow=0;comic=0;labelBackgroundColor=none;strokeWidth=1;fontFamily=Verdana;fontSize=14" parent="1" vertex="1">
          <mxGeometry x="280" y="235" width="210" height="88" as="geometry" />
        </mxCell>
        <mxCell id="2YbUK4ISL08a5dzmmpoV-128" value="specialisation_area_id (int)" style="shape=partialRectangle;top=0;left=0;right=0;bottom=0;html=1;align=left;verticalAlign=top;fillColor=none;spacingLeft=34;spacingRight=4;whiteSpace=wrap;overflow=hidden;rotatable=0;points=[[0,0.5],[1,0.5]];portConstraint=eastwest;dropTarget=0;" parent="2YbUK4ISL08a5dzmmpoV-127" vertex="1">
          <mxGeometry y="26" width="210" height="26" as="geometry" />
        </mxCell>
        <mxCell id="2YbUK4ISL08a5dzmmpoV-129" value="FK" style="shape=partialRectangle;top=0;left=0;bottom=0;html=1;fillColor=none;align=left;verticalAlign=top;spacingLeft=4;spacingRight=4;whiteSpace=wrap;overflow=hidden;rotatable=0;points=[];portConstraint=eastwest;part=1;" parent="2YbUK4ISL08a5dzmmpoV-128" vertex="1" connectable="0">
          <mxGeometry width="30" height="26" as="geometry" />
        </mxCell>
        <mxCell id="2YbUK4ISL08a5dzmmpoV-130" value="" style="shape=partialRectangle;top=0;left=0;right=0;bottom=0;html=1;align=left;verticalAlign=top;fillColor=none;spacingLeft=34;spacingRight=4;whiteSpace=wrap;overflow=hidden;rotatable=0;points=[[0,0.5],[1,0.5]];portConstraint=eastwest;dropTarget=0;" parent="2YbUK4ISL08a5dzmmpoV-127" vertex="1">
          <mxGeometry y="52" width="210" height="10" as="geometry" />
        </mxCell>
        <mxCell id="2YbUK4ISL08a5dzmmpoV-131" value="" style="shape=partialRectangle;top=0;left=0;bottom=0;html=1;fillColor=none;align=left;verticalAlign=top;spacingLeft=4;spacingRight=4;whiteSpace=wrap;overflow=hidden;rotatable=0;points=[];portConstraint=eastwest;part=1;" parent="2YbUK4ISL08a5dzmmpoV-130" vertex="1" connectable="0">
          <mxGeometry width="30" height="10" as="geometry" />
        </mxCell>
        <mxCell id="2YbUK4ISL08a5dzmmpoV-132" value="teatcher_id (int)" style="shape=partialRectangle;top=0;left=0;right=0;bottom=0;html=1;align=left;verticalAlign=top;fillColor=none;spacingLeft=34;spacingRight=4;whiteSpace=wrap;overflow=hidden;rotatable=0;points=[[0,0.5],[1,0.5]];portConstraint=eastwest;dropTarget=0;" parent="2YbUK4ISL08a5dzmmpoV-127" vertex="1">
          <mxGeometry y="62" width="210" height="26" as="geometry" />
        </mxCell>
        <mxCell id="2YbUK4ISL08a5dzmmpoV-133" value="FK" style="shape=partialRectangle;top=0;left=0;bottom=0;html=1;fillColor=none;align=left;verticalAlign=top;spacingLeft=4;spacingRight=4;whiteSpace=wrap;overflow=hidden;rotatable=0;points=[];portConstraint=eastwest;part=1;" parent="2YbUK4ISL08a5dzmmpoV-132" vertex="1" connectable="0">
          <mxGeometry width="30" height="26" as="geometry" />
        </mxCell>
        <mxCell id="2YbUK4ISL08a5dzmmpoV-134" value="pedagogical_group_users" style="swimlane;html=1;fontStyle=0;childLayout=stackLayout;horizontal=1;startSize=26;fillColor=#e0e0e0;horizontalStack=0;resizeParent=1;resizeLast=0;collapsible=1;marginBottom=0;swimlaneFillColor=#ffffff;align=center;rounded=0;shadow=0;comic=0;labelBackgroundColor=none;strokeWidth=1;fontFamily=Verdana;fontSize=14" parent="1" vertex="1">
          <mxGeometry x="280" y="389" width="210" height="88" as="geometry" />
        </mxCell>
        <mxCell id="2YbUK4ISL08a5dzmmpoV-135" value="pedagogical_group_id (int)" style="shape=partialRectangle;top=0;left=0;right=0;bottom=0;html=1;align=left;verticalAlign=top;fillColor=none;spacingLeft=34;spacingRight=4;whiteSpace=wrap;overflow=hidden;rotatable=0;points=[[0,0.5],[1,0.5]];portConstraint=eastwest;dropTarget=0;" parent="2YbUK4ISL08a5dzmmpoV-134" vertex="1">
          <mxGeometry y="26" width="210" height="26" as="geometry" />
        </mxCell>
        <mxCell id="2YbUK4ISL08a5dzmmpoV-136" value="FK" style="shape=partialRectangle;top=0;left=0;bottom=0;html=1;fillColor=none;align=left;verticalAlign=top;spacingLeft=4;spacingRight=4;whiteSpace=wrap;overflow=hidden;rotatable=0;points=[];portConstraint=eastwest;part=1;" parent="2YbUK4ISL08a5dzmmpoV-135" vertex="1" connectable="0">
          <mxGeometry width="30" height="26" as="geometry" />
        </mxCell>
        <mxCell id="2YbUK4ISL08a5dzmmpoV-137" value="" style="shape=partialRectangle;top=0;left=0;right=0;bottom=0;html=1;align=left;verticalAlign=top;fillColor=none;spacingLeft=34;spacingRight=4;whiteSpace=wrap;overflow=hidden;rotatable=0;points=[[0,0.5],[1,0.5]];portConstraint=eastwest;dropTarget=0;" parent="2YbUK4ISL08a5dzmmpoV-134" vertex="1">
          <mxGeometry y="52" width="210" height="10" as="geometry" />
        </mxCell>
        <mxCell id="2YbUK4ISL08a5dzmmpoV-138" value="" style="shape=partialRectangle;top=0;left=0;bottom=0;html=1;fillColor=none;align=left;verticalAlign=top;spacingLeft=4;spacingRight=4;whiteSpace=wrap;overflow=hidden;rotatable=0;points=[];portConstraint=eastwest;part=1;" parent="2YbUK4ISL08a5dzmmpoV-137" vertex="1" connectable="0">
          <mxGeometry width="30" height="10" as="geometry" />
        </mxCell>
        <mxCell id="2YbUK4ISL08a5dzmmpoV-139" value="teatcher_id (int)" style="shape=partialRectangle;top=0;left=0;right=0;bottom=0;html=1;align=left;verticalAlign=top;fillColor=none;spacingLeft=34;spacingRight=4;whiteSpace=wrap;overflow=hidden;rotatable=0;points=[[0,0.5],[1,0.5]];portConstraint=eastwest;dropTarget=0;" parent="2YbUK4ISL08a5dzmmpoV-134" vertex="1">
          <mxGeometry y="62" width="210" height="26" as="geometry" />
        </mxCell>
        <mxCell id="2YbUK4ISL08a5dzmmpoV-140" value="FK" style="shape=partialRectangle;top=0;left=0;bottom=0;html=1;fillColor=none;align=left;verticalAlign=top;spacingLeft=4;spacingRight=4;whiteSpace=wrap;overflow=hidden;rotatable=0;points=[];portConstraint=eastwest;part=1;" parent="2YbUK4ISL08a5dzmmpoV-139" vertex="1" connectable="0">
          <mxGeometry width="30" height="26" as="geometry" />
        </mxCell>
        <mxCell id="2YbUK4ISL08a5dzmmpoV-141" value="" style="edgeStyle=entityRelationEdgeStyle;fontSize=12;html=1;endArrow=ERoneToMany;startArrow=ERone;rounded=0;entryX=1;entryY=0.5;entryDx=0;entryDy=0;startFill=0;exitX=-0.006;exitY=0.139;exitDx=0;exitDy=0;exitPerimeter=0;" parent="1" source="2YbUK4ISL08a5dzmmpoV-22" target="2YbUK4ISL08a5dzmmpoV-132" edge="1">
          <mxGeometry width="100" height="100" relative="1" as="geometry">
            <mxPoint x="529" y="336" as="sourcePoint" />
            <mxPoint x="438" y="425" as="targetPoint" />
          </mxGeometry>
        </mxCell>
        <mxCell id="2YbUK4ISL08a5dzmmpoV-142" value="" style="edgeStyle=entityRelationEdgeStyle;fontSize=12;html=1;endArrow=ERoneToMany;startArrow=ERone;rounded=0;entryX=1;entryY=0.5;entryDx=0;entryDy=0;startFill=0;exitX=0.006;exitY=0.875;exitDx=0;exitDy=0;exitPerimeter=0;" parent="1" source="2YbUK4ISL08a5dzmmpoV-22" target="2YbUK4ISL08a5dzmmpoV-139" edge="1">
          <mxGeometry width="100" height="100" relative="1" as="geometry">
            <mxPoint x="526" y="346" as="sourcePoint" />
            <mxPoint x="438" y="367" as="targetPoint" />
          </mxGeometry>
        </mxCell>
        <mxCell id="2YbUK4ISL08a5dzmmpoV-143" value="" style="edgeStyle=entityRelationEdgeStyle;fontSize=12;html=1;endArrow=ERoneToMany;startArrow=ERone;rounded=0;exitX=1.016;exitY=0.745;exitDx=0;exitDy=0;startFill=0;entryX=0;entryY=0.5;entryDx=0;entryDy=0;exitPerimeter=0;" parent="1" target="2YbUK4ISL08a5dzmmpoV-128" edge="1">
          <mxGeometry width="100" height="100" relative="1" as="geometry">
            <mxPoint x="202.8800000000001" y="105.35000000000002" as="sourcePoint" />
            <mxPoint x="270" y="275" as="targetPoint" />
          </mxGeometry>
        </mxCell>
        <mxCell id="2YbUK4ISL08a5dzmmpoV-144" value="" style="edgeStyle=entityRelationEdgeStyle;fontSize=12;html=1;endArrow=ERoneToMany;startArrow=ERone;rounded=0;startFill=0;entryX=0;entryY=0.5;entryDx=0;entryDy=0;exitX=1.023;exitY=0.18;exitDx=0;exitDy=0;exitPerimeter=0;" parent="1" source="2YbUK4ISL08a5dzmmpoV-121" target="2YbUK4ISL08a5dzmmpoV-135" edge="1">
          <mxGeometry width="100" height="100" relative="1" as="geometry">
            <mxPoint x="190" y="456" as="sourcePoint" />
            <mxPoint x="270" y="456" as="targetPoint" />
          </mxGeometry>
        </mxCell>
        <mxCell id="oqj-cZ9m_qDqEeV06WUJ-12" style="edgeStyle=orthogonalEdgeStyle;rounded=0;orthogonalLoop=1;jettySize=auto;html=1;startArrow=ERone;startFill=0;endArrow=ERzeroToMany;endFill=0;exitX=1.006;exitY=0.678;exitDx=0;exitDy=0;exitPerimeter=0;entryX=0.004;entryY=1.051;entryDx=0;entryDy=0;entryPerimeter=0;" parent="1" source="2YbUK4ISL08a5dzmmpoV-121" target="oqj-cZ9m_qDqEeV06WUJ-10" edge="1">
          <mxGeometry relative="1" as="geometry">
            <mxPoint x="210" y="668" as="sourcePoint" />
            <mxPoint x="1070" y="800" as="targetPoint" />
            <Array as="points">
              <mxPoint x="240" y="673" />
              <mxPoint x="240" y="815" />
            </Array>
          </mxGeometry>
        </mxCell>
        <mxCell id="oqj-cZ9m_qDqEeV06WUJ-13" style="edgeStyle=orthogonalEdgeStyle;rounded=0;orthogonalLoop=1;jettySize=auto;html=1;startArrow=ERone;startFill=0;endArrow=ERzeroToMany;endFill=0;" parent="1" target="oqj-cZ9m_qDqEeV06WUJ-6" edge="1">
          <mxGeometry relative="1" as="geometry">
            <Array as="points">
              <mxPoint x="240" y="70" />
              <mxPoint x="240" y="17" />
              <mxPoint x="1120" y="17" />
              <mxPoint x="1120" y="158" />
            </Array>
            <mxPoint x="200" y="70" as="sourcePoint" />
          </mxGeometry>
        </mxCell>
        <mxCell id="Ckj1gUC8P8zu2XmUC1Yf-18" value="user_types" style="swimlane;html=1;fontStyle=0;childLayout=stackLayout;horizontal=1;startSize=26;fillColor=#e0e0e0;horizontalStack=0;resizeParent=1;resizeLast=0;collapsible=1;marginBottom=0;swimlaneFillColor=#ffffff;align=center;rounded=0;shadow=0;comic=0;labelBackgroundColor=none;strokeWidth=1;fontFamily=Verdana;fontSize=14" parent="1" vertex="1">
          <mxGeometry x="890" y="137" width="180" height="92" as="geometry" />
        </mxCell>
        <mxCell id="Ckj1gUC8P8zu2XmUC1Yf-19" value="id (int)" style="shape=partialRectangle;top=0;left=0;right=0;bottom=1;html=1;align=left;verticalAlign=middle;fillColor=none;spacingLeft=34;spacingRight=4;whiteSpace=wrap;overflow=hidden;rotatable=0;points=[[0,0.5],[1,0.5]];portConstraint=eastwest;dropTarget=0;fontStyle=5;" parent="Ckj1gUC8P8zu2XmUC1Yf-18" vertex="1">
          <mxGeometry y="26" width="180" height="30" as="geometry" />
        </mxCell>
        <mxCell id="Ckj1gUC8P8zu2XmUC1Yf-20" value="PK" style="shape=partialRectangle;top=0;left=0;bottom=0;html=1;fillColor=none;align=left;verticalAlign=middle;spacingLeft=4;spacingRight=4;whiteSpace=wrap;overflow=hidden;rotatable=0;points=[];portConstraint=eastwest;part=1;" parent="Ckj1gUC8P8zu2XmUC1Yf-19" vertex="1" connectable="0">
          <mxGeometry width="30" height="30" as="geometry" />
        </mxCell>
        <mxCell id="Ckj1gUC8P8zu2XmUC1Yf-21" value="name (varchar)" style="shape=partialRectangle;top=0;left=0;right=0;bottom=0;html=1;align=left;verticalAlign=top;fillColor=none;spacingLeft=34;spacingRight=4;whiteSpace=wrap;overflow=hidden;rotatable=0;points=[[0,0.5],[1,0.5]];portConstraint=eastwest;dropTarget=0;" parent="Ckj1gUC8P8zu2XmUC1Yf-18" vertex="1">
          <mxGeometry y="56" width="180" height="26" as="geometry" />
        </mxCell>
        <mxCell id="Ckj1gUC8P8zu2XmUC1Yf-22" value="" style="shape=partialRectangle;top=0;left=0;bottom=0;html=1;fillColor=none;align=left;verticalAlign=top;spacingLeft=4;spacingRight=4;whiteSpace=wrap;overflow=hidden;rotatable=0;points=[];portConstraint=eastwest;part=1;" parent="Ckj1gUC8P8zu2XmUC1Yf-21" vertex="1" connectable="0">
          <mxGeometry width="30" height="26" as="geometry" />
        </mxCell>
        <mxCell id="Ckj1gUC8P8zu2XmUC1Yf-23" value="" style="shape=partialRectangle;top=0;left=0;right=0;bottom=0;html=1;align=left;verticalAlign=top;fillColor=none;spacingLeft=34;spacingRight=4;whiteSpace=wrap;overflow=hidden;rotatable=0;points=[[0,0.5],[1,0.5]];portConstraint=eastwest;dropTarget=0;" parent="Ckj1gUC8P8zu2XmUC1Yf-18" vertex="1">
          <mxGeometry y="82" width="180" height="10" as="geometry" />
        </mxCell>
        <mxCell id="Ckj1gUC8P8zu2XmUC1Yf-24" value="" style="shape=partialRectangle;top=0;left=0;bottom=0;html=1;fillColor=none;align=left;verticalAlign=top;spacingLeft=4;spacingRight=4;whiteSpace=wrap;overflow=hidden;rotatable=0;points=[];portConstraint=eastwest;part=1;" parent="Ckj1gUC8P8zu2XmUC1Yf-23" vertex="1" connectable="0">
          <mxGeometry width="30" height="10" as="geometry" />
        </mxCell>
        <mxCell id="Ckj1gUC8P8zu2XmUC1Yf-25" style="edgeStyle=orthogonalEdgeStyle;rounded=0;orthogonalLoop=1;jettySize=auto;html=1;exitX=0;exitY=0.5;exitDx=0;exitDy=0;entryX=1;entryY=0.5;entryDx=0;entryDy=0;startArrow=ERone;startFill=0;endArrow=ERoneToMany;endFill=0;" parent="1" source="Ckj1gUC8P8zu2XmUC1Yf-19" target="2YbUK4ISL08a5dzmmpoV-24" edge="1">
          <mxGeometry relative="1" as="geometry" />
        </mxCell>
        <mxCell id="Ckj1gUC8P8zu2XmUC1Yf-66" style="edgeStyle=orthogonalEdgeStyle;rounded=0;orthogonalLoop=1;jettySize=auto;html=1;exitX=0;exitY=0.5;exitDx=0;exitDy=0;entryX=1;entryY=0.5;entryDx=0;entryDy=0;startArrow=ERoneToMany;startFill=0;endArrow=ERone;endFill=0;" parent="1" source="Ckj1gUC8P8zu2XmUC1Yf-54" target="2YbUK4ISL08a5dzmmpoV-33" edge="1">
          <mxGeometry relative="1" as="geometry" />
        </mxCell>
        <mxCell id="Ckj1gUC8P8zu2XmUC1Yf-26" value="hour_blocks" style="swimlane;html=1;fontStyle=0;childLayout=stackLayout;horizontal=1;startSize=26;fillColor=#e0e0e0;horizontalStack=0;resizeParent=1;resizeLast=0;collapsible=1;marginBottom=0;swimlaneFillColor=#ffffff;align=center;rounded=0;shadow=0;comic=0;labelBackgroundColor=none;strokeWidth=1;fontFamily=Verdana;fontSize=14" parent="1" vertex="1">
          <mxGeometry x="1400.0000000000002" y="180" width="180" height="170" as="geometry" />
        </mxCell>
        <mxCell id="Ckj1gUC8P8zu2XmUC1Yf-27" value="id (int)" style="shape=partialRectangle;top=0;left=0;right=0;bottom=1;html=1;align=left;verticalAlign=middle;fillColor=none;spacingLeft=34;spacingRight=4;whiteSpace=wrap;overflow=hidden;rotatable=0;points=[[0,0.5],[1,0.5]];portConstraint=eastwest;dropTarget=0;fontStyle=5;" parent="Ckj1gUC8P8zu2XmUC1Yf-26" vertex="1">
          <mxGeometry y="26" width="180" height="30" as="geometry" />
        </mxCell>
        <mxCell id="Ckj1gUC8P8zu2XmUC1Yf-28" value="PK" style="shape=partialRectangle;top=0;left=0;bottom=0;html=1;fillColor=none;align=left;verticalAlign=middle;spacingLeft=4;spacingRight=4;whiteSpace=wrap;overflow=hidden;rotatable=0;points=[];portConstraint=eastwest;part=1;" parent="Ckj1gUC8P8zu2XmUC1Yf-27" vertex="1" connectable="0">
          <mxGeometry width="30" height="30" as="geometry" />
        </mxCell>
        <mxCell id="Ckj1gUC8P8zu2XmUC1Yf-29" value="hour (time)" style="shape=partialRectangle;top=0;left=0;right=0;bottom=0;html=1;align=left;verticalAlign=top;fillColor=none;spacingLeft=34;spacingRight=4;whiteSpace=wrap;overflow=hidden;rotatable=0;points=[[0,0.5],[1,0.5]];portConstraint=eastwest;dropTarget=0;" parent="Ckj1gUC8P8zu2XmUC1Yf-26" vertex="1">
          <mxGeometry y="56" width="180" height="26" as="geometry" />
        </mxCell>
        <mxCell id="Ckj1gUC8P8zu2XmUC1Yf-30" value="" style="shape=partialRectangle;top=0;left=0;bottom=0;html=1;fillColor=none;align=left;verticalAlign=top;spacingLeft=4;spacingRight=4;whiteSpace=wrap;overflow=hidden;rotatable=0;points=[];portConstraint=eastwest;part=1;" parent="Ckj1gUC8P8zu2XmUC1Yf-29" vertex="1" connectable="0">
          <mxGeometry width="30" height="26" as="geometry" />
        </mxCell>
        <mxCell id="Ckj1gUC8P8zu2XmUC1Yf-64" value="hour_beguining: (time)" style="shape=partialRectangle;top=0;left=0;right=0;bottom=0;html=1;align=left;verticalAlign=top;fillColor=none;spacingLeft=34;spacingRight=4;whiteSpace=wrap;overflow=hidden;rotatable=0;points=[[0,0.5],[1,0.5]];portConstraint=eastwest;dropTarget=0;" parent="Ckj1gUC8P8zu2XmUC1Yf-26" vertex="1">
          <mxGeometry y="82" width="180" height="26" as="geometry" />
        </mxCell>
        <mxCell id="Ckj1gUC8P8zu2XmUC1Yf-65" value="" style="shape=partialRectangle;top=0;left=0;bottom=0;html=1;fillColor=none;align=left;verticalAlign=top;spacingLeft=4;spacingRight=4;whiteSpace=wrap;overflow=hidden;rotatable=0;points=[];portConstraint=eastwest;part=1;" parent="Ckj1gUC8P8zu2XmUC1Yf-64" vertex="1" connectable="0">
          <mxGeometry width="30" height="26" as="geometry" />
        </mxCell>
        <mxCell id="Ckj1gUC8P8zu2XmUC1Yf-62" value="hour_end: (time)" style="shape=partialRectangle;top=0;left=0;right=0;bottom=0;html=1;align=left;verticalAlign=top;fillColor=none;spacingLeft=34;spacingRight=4;whiteSpace=wrap;overflow=hidden;rotatable=0;points=[[0,0.5],[1,0.5]];portConstraint=eastwest;dropTarget=0;" parent="Ckj1gUC8P8zu2XmUC1Yf-26" vertex="1">
          <mxGeometry y="108" width="180" height="26" as="geometry" />
        </mxCell>
        <mxCell id="Ckj1gUC8P8zu2XmUC1Yf-63" value="" style="shape=partialRectangle;top=0;left=0;bottom=0;html=1;fillColor=none;align=left;verticalAlign=top;spacingLeft=4;spacingRight=4;whiteSpace=wrap;overflow=hidden;rotatable=0;points=[];portConstraint=eastwest;part=1;" parent="Ckj1gUC8P8zu2XmUC1Yf-62" vertex="1" connectable="0">
          <mxGeometry width="30" height="26" as="geometry" />
        </mxCell>
        <mxCell id="Ckj1gUC8P8zu2XmUC1Yf-54" value="course_classes_id (int)" style="shape=partialRectangle;top=0;left=0;right=0;bottom=0;html=1;align=left;verticalAlign=top;fillColor=none;spacingLeft=34;spacingRight=4;whiteSpace=wrap;overflow=hidden;rotatable=0;points=[[0,0.5],[1,0.5]];portConstraint=eastwest;dropTarget=0;" parent="Ckj1gUC8P8zu2XmUC1Yf-26" vertex="1">
          <mxGeometry y="134" width="180" height="26" as="geometry" />
        </mxCell>
        <mxCell id="Ckj1gUC8P8zu2XmUC1Yf-55" value="FK" style="shape=partialRectangle;top=0;left=0;bottom=0;html=1;fillColor=none;align=left;verticalAlign=top;spacingLeft=4;spacingRight=4;whiteSpace=wrap;overflow=hidden;rotatable=0;points=[];portConstraint=eastwest;part=1;" parent="Ckj1gUC8P8zu2XmUC1Yf-54" vertex="1" connectable="0">
          <mxGeometry width="30" height="26" as="geometry" />
        </mxCell>
        <mxCell id="Ckj1gUC8P8zu2XmUC1Yf-31" value="" style="shape=partialRectangle;top=0;left=0;right=0;bottom=0;html=1;align=left;verticalAlign=top;fillColor=none;spacingLeft=34;spacingRight=4;whiteSpace=wrap;overflow=hidden;rotatable=0;points=[[0,0.5],[1,0.5]];portConstraint=eastwest;dropTarget=0;" parent="Ckj1gUC8P8zu2XmUC1Yf-26" vertex="1">
          <mxGeometry y="160" width="180" height="10" as="geometry" />
        </mxCell>
        <mxCell id="Ckj1gUC8P8zu2XmUC1Yf-32" value="" style="shape=partialRectangle;top=0;left=0;bottom=0;html=1;fillColor=none;align=left;verticalAlign=top;spacingLeft=4;spacingRight=4;whiteSpace=wrap;overflow=hidden;rotatable=0;points=[];portConstraint=eastwest;part=1;" parent="Ckj1gUC8P8zu2XmUC1Yf-31" vertex="1" connectable="0">
          <mxGeometry width="30" height="10" as="geometry" />
        </mxCell>
        <mxCell id="Ckj1gUC8P8zu2XmUC1Yf-42" value="" style="edgeStyle=orthogonalEdgeStyle;rounded=0;orthogonalLoop=1;jettySize=auto;html=1;exitX=1;exitY=0.5;exitDx=0;exitDy=0;endArrow=ERzeroToMany;endFill=0;startArrow=ERone;startFill=0;entryX=1;entryY=0.5;entryDx=0;entryDy=0;" parent="1" source="2YbUK4ISL08a5dzmmpoV-22" target="Ckj1gUC8P8zu2XmUC1Yf-43" edge="1">
          <mxGeometry relative="1" as="geometry">
            <Array as="points">
              <mxPoint x="1110" y="88" />
              <mxPoint x="1110" y="401" />
            </Array>
            <mxPoint x="820" y="88" as="sourcePoint" />
            <mxPoint x="1130" y="390" as="targetPoint" />
          </mxGeometry>
        </mxCell>
        <mxCell id="2YbUK4ISL08a5dzmmpoV-83" value="schedule_atributions " style="swimlane;html=1;fontStyle=0;childLayout=stackLayout;horizontal=1;startSize=26;fillColor=#e0e0e0;horizontalStack=0;resizeParent=1;resizeLast=0;collapsible=1;marginBottom=0;swimlaneFillColor=#ffffff;align=center;rounded=0;shadow=0;comic=0;labelBackgroundColor=none;strokeWidth=1;fontFamily=Verdana;fontSize=14" parent="1" vertex="1">
          <mxGeometry x="870" y="254" width="220" height="274" as="geometry" />
        </mxCell>
        <mxCell id="2YbUK4ISL08a5dzmmpoV-84" value="id (int)" style="shape=partialRectangle;top=0;left=0;right=0;bottom=1;html=1;align=left;verticalAlign=middle;fillColor=none;spacingLeft=34;spacingRight=4;whiteSpace=wrap;overflow=hidden;rotatable=0;points=[[0,0.5],[1,0.5]];portConstraint=eastwest;dropTarget=0;fontStyle=5;" parent="2YbUK4ISL08a5dzmmpoV-83" vertex="1">
          <mxGeometry y="26" width="220" height="30" as="geometry" />
        </mxCell>
        <mxCell id="2YbUK4ISL08a5dzmmpoV-85" value="PK" style="shape=partialRectangle;top=0;left=0;bottom=0;html=1;fillColor=none;align=left;verticalAlign=middle;spacingLeft=4;spacingRight=4;whiteSpace=wrap;overflow=hidden;rotatable=0;points=[];portConstraint=eastwest;part=1;" parent="2YbUK4ISL08a5dzmmpoV-84" vertex="1" connectable="0">
          <mxGeometry width="30" height="30" as="geometry" />
        </mxCell>
        <mxCell id="Ckj1gUC8P8zu2XmUC1Yf-49" value="date (datetime)" style="shape=partialRectangle;top=0;left=0;right=0;bottom=0;html=1;align=left;verticalAlign=top;fillColor=none;spacingLeft=34;spacingRight=4;whiteSpace=wrap;overflow=hidden;rotatable=0;points=[[0,0.5],[1,0.5]];portConstraint=eastwest;dropTarget=0;" parent="2YbUK4ISL08a5dzmmpoV-83" vertex="1">
          <mxGeometry y="56" width="220" height="26" as="geometry" />
        </mxCell>
        <mxCell id="Ckj1gUC8P8zu2XmUC1Yf-50" value="" style="shape=partialRectangle;top=0;left=0;bottom=0;html=1;fillColor=none;align=left;verticalAlign=top;spacingLeft=4;spacingRight=4;whiteSpace=wrap;overflow=hidden;rotatable=0;points=[];portConstraint=eastwest;part=1;" parent="Ckj1gUC8P8zu2XmUC1Yf-49" vertex="1" connectable="0">
          <mxGeometry width="30" height="26" as="geometry" />
        </mxCell>
        <mxCell id="2YbUK4ISL08a5dzmmpoV-86" value="hour_start (time)" style="shape=partialRectangle;top=0;left=0;right=0;bottom=0;html=1;align=left;verticalAlign=top;fillColor=none;spacingLeft=34;spacingRight=4;whiteSpace=wrap;overflow=hidden;rotatable=0;points=[[0,0.5],[1,0.5]];portConstraint=eastwest;dropTarget=0;" parent="2YbUK4ISL08a5dzmmpoV-83" vertex="1">
          <mxGeometry y="82" width="220" height="26" as="geometry" />
        </mxCell>
        <mxCell id="2YbUK4ISL08a5dzmmpoV-87" value="" style="shape=partialRectangle;top=0;left=0;bottom=0;html=1;fillColor=none;align=left;verticalAlign=top;spacingLeft=4;spacingRight=4;whiteSpace=wrap;overflow=hidden;rotatable=0;points=[];portConstraint=eastwest;part=1;" parent="2YbUK4ISL08a5dzmmpoV-86" vertex="1" connectable="0">
          <mxGeometry width="30" height="26" as="geometry" />
        </mxCell>
        <mxCell id="2YbUK4ISL08a5dzmmpoV-88" value="hour_end (time)" style="shape=partialRectangle;top=0;left=0;right=0;bottom=0;html=1;align=left;verticalAlign=top;fillColor=none;spacingLeft=34;spacingRight=4;whiteSpace=wrap;overflow=hidden;rotatable=0;points=[[0,0.5],[1,0.5]];portConstraint=eastwest;dropTarget=0;" parent="2YbUK4ISL08a5dzmmpoV-83" vertex="1">
          <mxGeometry y="108" width="220" height="26" as="geometry" />
        </mxCell>
        <mxCell id="2YbUK4ISL08a5dzmmpoV-89" value="" style="shape=partialRectangle;top=0;left=0;bottom=0;html=1;fillColor=none;align=left;verticalAlign=top;spacingLeft=4;spacingRight=4;whiteSpace=wrap;overflow=hidden;rotatable=0;points=[];portConstraint=eastwest;part=1;" parent="2YbUK4ISL08a5dzmmpoV-88" vertex="1" connectable="0">
          <mxGeometry width="30" height="26" as="geometry" />
        </mxCell>
        <mxCell id="XMIAzyzYhjPNlsQmTrW_-9" value="published (bool)" style="shape=partialRectangle;top=0;left=0;right=0;bottom=0;html=1;align=left;verticalAlign=top;fillColor=none;spacingLeft=34;spacingRight=4;whiteSpace=wrap;overflow=hidden;rotatable=0;points=[[0,0.5],[1,0.5]];portConstraint=eastwest;dropTarget=0;" parent="2YbUK4ISL08a5dzmmpoV-83" vertex="1">
          <mxGeometry y="134" width="220" height="26" as="geometry" />
        </mxCell>
        <mxCell id="XMIAzyzYhjPNlsQmTrW_-10" value="" style="shape=partialRectangle;top=0;left=0;bottom=0;html=1;fillColor=none;align=left;verticalAlign=top;spacingLeft=4;spacingRight=4;whiteSpace=wrap;overflow=hidden;rotatable=0;points=[];portConstraint=eastwest;part=1;" parent="XMIAzyzYhjPNlsQmTrW_-9" vertex="1" connectable="0">
          <mxGeometry width="30" height="26" as="geometry" />
        </mxCell>
        <mxCell id="Ckj1gUC8P8zu2XmUC1Yf-43" value="user_id (int)" style="shape=partialRectangle;top=0;left=0;right=0;bottom=0;html=1;align=left;verticalAlign=top;fillColor=none;spacingLeft=34;spacingRight=4;whiteSpace=wrap;overflow=hidden;rotatable=0;points=[[0,0.5],[1,0.5]];portConstraint=eastwest;dropTarget=0;" parent="2YbUK4ISL08a5dzmmpoV-83" vertex="1">
          <mxGeometry y="160" width="220" height="26" as="geometry" />
        </mxCell>
        <mxCell id="Ckj1gUC8P8zu2XmUC1Yf-44" value="FK" style="shape=partialRectangle;top=0;left=0;bottom=0;html=1;fillColor=none;align=left;verticalAlign=top;spacingLeft=4;spacingRight=4;whiteSpace=wrap;overflow=hidden;rotatable=0;points=[];portConstraint=eastwest;part=1;" parent="Ckj1gUC8P8zu2XmUC1Yf-43" vertex="1" connectable="0">
          <mxGeometry width="30" height="26" as="geometry" />
        </mxCell>
        <mxCell id="Ckj1gUC8P8zu2XmUC1Yf-51" value="course_classes_id (int)" style="shape=partialRectangle;top=0;left=0;right=0;bottom=0;html=1;align=left;verticalAlign=top;fillColor=none;spacingLeft=34;spacingRight=4;whiteSpace=wrap;overflow=hidden;rotatable=0;points=[[0,0.5],[1,0.5]];portConstraint=eastwest;dropTarget=0;" parent="2YbUK4ISL08a5dzmmpoV-83" vertex="1">
          <mxGeometry y="186" width="220" height="26" as="geometry" />
        </mxCell>
        <mxCell id="Ckj1gUC8P8zu2XmUC1Yf-52" value="FK" style="shape=partialRectangle;top=0;left=0;bottom=0;html=1;fillColor=none;align=left;verticalAlign=top;spacingLeft=4;spacingRight=4;whiteSpace=wrap;overflow=hidden;rotatable=0;points=[];portConstraint=eastwest;part=1;" parent="Ckj1gUC8P8zu2XmUC1Yf-51" vertex="1" connectable="0">
          <mxGeometry width="30" height="26" as="geometry" />
        </mxCell>
        <mxCell id="Ckj1gUC8P8zu2XmUC1Yf-46" value="ufcd_id (int)" style="shape=partialRectangle;top=0;left=0;right=0;bottom=0;html=1;align=left;verticalAlign=top;fillColor=none;spacingLeft=34;spacingRight=4;whiteSpace=wrap;overflow=hidden;rotatable=0;points=[[0,0.5],[1,0.5]];portConstraint=eastwest;dropTarget=0;" parent="2YbUK4ISL08a5dzmmpoV-83" vertex="1">
          <mxGeometry y="212" width="220" height="26" as="geometry" />
        </mxCell>
        <mxCell id="Ckj1gUC8P8zu2XmUC1Yf-47" value="FK" style="shape=partialRectangle;top=0;left=0;bottom=0;html=1;fillColor=none;align=left;verticalAlign=top;spacingLeft=4;spacingRight=4;whiteSpace=wrap;overflow=hidden;rotatable=0;points=[];portConstraint=eastwest;part=1;" parent="Ckj1gUC8P8zu2XmUC1Yf-46" vertex="1" connectable="0">
          <mxGeometry width="30" height="26" as="geometry" />
        </mxCell>
        <mxCell id="2YbUK4ISL08a5dzmmpoV-90" value="availability_type_id (int)" style="shape=partialRectangle;top=0;left=0;right=0;bottom=0;html=1;align=left;verticalAlign=top;fillColor=none;spacingLeft=34;spacingRight=4;whiteSpace=wrap;overflow=hidden;rotatable=0;points=[[0,0.5],[1,0.5]];portConstraint=eastwest;dropTarget=0;" parent="2YbUK4ISL08a5dzmmpoV-83" vertex="1">
          <mxGeometry y="238" width="220" height="26" as="geometry" />
        </mxCell>
        <mxCell id="2YbUK4ISL08a5dzmmpoV-91" value="FK" style="shape=partialRectangle;top=0;left=0;bottom=0;html=1;fillColor=none;align=left;verticalAlign=top;spacingLeft=4;spacingRight=4;whiteSpace=wrap;overflow=hidden;rotatable=0;points=[];portConstraint=eastwest;part=1;" parent="2YbUK4ISL08a5dzmmpoV-90" vertex="1" connectable="0">
          <mxGeometry width="30" height="26" as="geometry" />
        </mxCell>
        <mxCell id="2YbUK4ISL08a5dzmmpoV-94" value="" style="shape=partialRectangle;top=0;left=0;right=0;bottom=0;html=1;align=left;verticalAlign=top;fillColor=none;spacingLeft=34;spacingRight=4;whiteSpace=wrap;overflow=hidden;rotatable=0;points=[[0,0.5],[1,0.5]];portConstraint=eastwest;dropTarget=0;" parent="2YbUK4ISL08a5dzmmpoV-83" vertex="1">
          <mxGeometry y="264" width="220" height="10" as="geometry" />
        </mxCell>
        <mxCell id="2YbUK4ISL08a5dzmmpoV-95" value="" style="shape=partialRectangle;top=0;left=0;bottom=0;html=1;fillColor=none;align=left;verticalAlign=top;spacingLeft=4;spacingRight=4;whiteSpace=wrap;overflow=hidden;rotatable=0;points=[];portConstraint=eastwest;part=1;" parent="2YbUK4ISL08a5dzmmpoV-94" vertex="1" connectable="0">
          <mxGeometry width="30" height="10" as="geometry" />
        </mxCell>
        <mxCell id="Ckj1gUC8P8zu2XmUC1Yf-45" style="edgeStyle=orthogonalEdgeStyle;rounded=0;orthogonalLoop=1;jettySize=auto;html=1;exitX=1;exitY=0.5;exitDx=0;exitDy=0;entryX=1;entryY=0.5;entryDx=0;entryDy=0;startArrow=ERone;startFill=0;endArrow=ERzeroToMany;endFill=0;" parent="1" source="2YbUK4ISL08a5dzmmpoV-70" target="2YbUK4ISL08a5dzmmpoV-90" edge="1">
          <mxGeometry relative="1" as="geometry" />
        </mxCell>
        <mxCell id="Ckj1gUC8P8zu2XmUC1Yf-53" style="edgeStyle=orthogonalEdgeStyle;rounded=0;orthogonalLoop=1;jettySize=auto;html=1;exitX=0;exitY=0.5;exitDx=0;exitDy=0;entryX=1;entryY=0.5;entryDx=0;entryDy=0;startArrow=ERone;startFill=0;endArrow=ERzeroToMany;endFill=0;" parent="1" source="2YbUK4ISL08a5dzmmpoV-33" target="Ckj1gUC8P8zu2XmUC1Yf-51" edge="1">
          <mxGeometry relative="1" as="geometry">
            <Array as="points">
              <mxPoint x="1130" y="292" />
              <mxPoint x="1130" y="427" />
            </Array>
          </mxGeometry>
        </mxCell>
      </root>
    </mxGraphModel>
  </diagram>
</mxfile>
